<svg version="1.1" xmlns="http://www.w3.org/2000/svg" xmlns:xlink="http://www.w3.org/1999/xlink" width="988" height="523"><defs/><g><g transform="translate(-78,-142) scale(1,1)"><rect fill="#C0C0C0" stroke="none" x="95" y="159" width="112" height="15" opacity="0.2"/></g><g transform="translate(-78,-142) scale(1,1)"><rect fill="#C0C0C0" stroke="none" x="95" y="173" width="280" height="234" opacity="0.2"/></g><g transform="translate(-78,-142) scale(1,1)"><rect fill="#ffffff" stroke="none" x="88" y="167" width="280" height="233"/></g><g transform="translate(-78,-142) scale(1,1)"><path fill="none" stroke="#000000" d="M 88 167 L 368 167 L 368 400 L 88 400 L 88 167 Z Z" stroke-miterlimit="10"/></g><g transform="translate(-78,-142) scale(1,1)"><rect fill="#ffffff" stroke="none" x="88" y="152" width="112" height="15"/></g><g transform="translate(-78,-142) scale(1,1)"><path fill="none" stroke="#000000" d="M 88 152 L 200 152 L 200 167 L 88 167 L 88 152 Z Z" stroke-miterlimit="10"/></g><g transform="translate(-78,-142) scale(1,1)"><rect fill="#ffffff" stroke="none" x="88" y="166" width="280" height="234"/></g><g transform="translate(-78,-142) scale(1,1)"><path fill="none" stroke="#000000" d="M 88 166 L 368 166 L 368 400 L 88 400 L 88 166 Z Z" stroke-miterlimit="10"/></g><g transform="translate(-78,-142) scale(1,1)"><g><path fill="none" stroke="none"/><text fill="#000000" stroke="none" font-family="Arial" font-size="13px" font-style="normal" font-weight="bold" text-decoration="none" x="183.1982421875" y="186.5">Event Producer</text></g></g><g transform="translate(-78,-142) scale(1,1)"><rect fill="#C0C0C0" stroke="none" x="439" y="159" width="112" height="15" opacity="0.2"/></g><g transform="translate(-78,-142) scale(1,1)"><rect fill="#C0C0C0" stroke="none" x="439" y="173" width="280" height="234" opacity="0.2"/></g><g transform="translate(-78,-142) scale(1,1)"><rect fill="#ffffff" stroke="none" x="432" y="167" width="280" height="233"/></g><g transform="translate(-78,-142) scale(1,1)"><path fill="none" stroke="#000000" d="M 432 167 L 712 167 L 712 400 L 432 400 L 432 167 Z Z" stroke-miterlimit="10"/></g><g transform="translate(-78,-142) scale(1,1)"><rect fill="#ffffff" stroke="none" x="432" y="152" width="112" height="15"/></g><g transform="translate(-78,-142) scale(1,1)"><path fill="none" stroke="#000000" d="M 432 152 L 544 152 L 544 167 L 432 167 L 432 152 Z Z" stroke-miterlimit="10"/></g><g transform="translate(-78,-142) scale(1,1)"><rect fill="#ffffff" stroke="none" x="432" y="166" width="280" height="234"/></g><g transform="translate(-78,-142) scale(1,1)"><path fill="none" stroke="#000000" d="M 432 166 L 712 166 L 712 400 L 432 400 L 432 166 Z Z" stroke-miterlimit="10"/></g><g transform="translate(-78,-142) scale(1,1)"><g><path fill="none" stroke="none"/><text fill="#000000" stroke="none" font-family="Arial" font-size="13px" font-style="normal" font-weight="bold" text-decoration="none" x="529.359619140625" y="186.5">Event Channel</text></g></g><g transform="translate(-78,-142) scale(1,1)"><rect fill="#C0C0C0" stroke="none" x="783" y="159" width="112" height="15" opacity="0.2"/></g><g transform="translate(-78,-142) scale(1,1)"><rect fill="#C0C0C0" stroke="none" x="783" y="173" width="280" height="234" opacity="0.2"/></g><g transform="translate(-78,-142) scale(1,1)"><rect fill="#ffffff" stroke="none" x="776" y="167" width="280" height="233"/></g><g transform="translate(-78,-142) scale(1,1)"><path fill="none" stroke="#000000" d="M 776 167 L 1056 167 L 1056 400 L 776 400 L 776 167 Z Z" stroke-miterlimit="10"/></g><g transform="translate(-78,-142) scale(1,1)"><rect fill="#ffffff" stroke="none" x="776" y="152" width="112" height="15"/></g><g transform="translate(-78,-142) scale(1,1)"><path fill="none" stroke="#000000" d="M 776 152 L 888 152 L 888 167 L 776 167 L 776 152 Z Z" stroke-miterlimit="10"/></g><g transform="translate(-78,-142) scale(1,1)"><rect fill="#ffffff" stroke="none" x="776" y="166" width="280" height="234"/></g><g transform="translate(-78,-142) scale(1,1)"><path fill="none" stroke="#000000" d="M 776 166 L 1056 166 L 1056 400 L 776 400 L 776 166 Z Z" stroke-miterlimit="10"/></g><g transform="translate(-78,-142) scale(1,1)"><g><path fill="none" stroke="none"/><text fill="#000000" stroke="none" font-family="Arial" font-size="13px" font-style="normal" font-weight="bold" text-decoration="none" x="867.589599609375" y="186.5">Event Consumer</text></g></g><g transform="translate(-78,-142) scale(1,1)"><rect fill="#C0C0C0" stroke="none" x="151" y="259" width="136.51171875" height="115" opacity="0.2"/></g><g transform="translate(-78,-142) scale(1,1)"><rect fill="#ffffff" stroke="none" x="144" y="252" width="136.51171875" height="115"/></g><g transform="translate(-78,-142) scale(1,1)"><path fill="none" stroke="#000000" d="M 144 252 L 280.51171875 252 L 280.51171875 367 L 144 367 L 144 252 Z Z" stroke-miterlimit="10"/></g><g transform="translate(-78,-142) scale(1,1)"><path fill="none" stroke="#000000" d="M 144 277 L 280.51171875 277" stroke-miterlimit="10"/></g><g transform="translate(-78,-142) scale(1,1)"><path fill="none" stroke="#000000" d="M 144 330 L 280.51171875 330" stroke-miterlimit="10"/></g><g transform="translate(-78,-142) scale(1,1)"><g><path fill="none" stroke="none"/><text fill="#000000" stroke="none" font-family="Arial" font-size="13px" font-style="normal" font-weight="bold" text-decoration="none" x="191.660888671875" y="271.5">Sensor</text></g></g><g transform="translate(-78,-142) scale(1,1)"><g><path fill="none" stroke="none"/><text fill="#000000" stroke="none" font-family="Arial" font-size="13px" font-style="normal" font-weight="normal" text-decoration="none" x="149" y="294.5">-Family</text></g></g><g transform="translate(-78,-142) scale(1,1)"><g><path fill="none" stroke="none"/><text fill="#000000" stroke="none" font-family="Arial" font-size="13px" font-style="normal" font-weight="normal" text-decoration="none" x="149" y="309.5">-Number</text></g></g><g transform="translate(-78,-142) scale(1,1)"><g><path fill="none" stroke="none"/><text fill="#000000" stroke="none" font-family="Arial" font-size="13px" font-style="normal" font-weight="normal" text-decoration="none" x="149" y="324.5">-Target</text></g></g><g transform="translate(-78,-142) scale(1,1)"><g><path fill="none" stroke="none"/><text fill="#000000" stroke="none" font-family="Arial" font-size="13px" font-style="normal" font-weight="normal" text-decoration="none" x="149" y="347.5">+GetInformation()</text></g></g><g transform="translate(-78,-142) scale(1,1)"><g><path fill="none" stroke="none"/><text fill="#000000" stroke="none" font-family="Arial" font-size="13px" font-style="normal" font-weight="normal" text-decoration="none" x="149" y="362.5">+SendInformation()</text></g></g><g transform="translate(-78,-142) scale(1,1)"><path fill="none" stroke="#000000" d="M 368 276 L 432 276" stroke-miterlimit="10" stroke-dasharray="3"/></g><g transform="translate(-78,-142) scale(1,1)"><path fill="none" stroke="#000000" d="M 421.83732514237585 280.209517756016 L 432 276 L 421.83732514237585 271.790482243984" stroke-miterlimit="10"/></g><g transform="translate(-78,-142) scale(1,1)"><path fill="none" stroke="#000000" d="M 712 276 L 776 276" stroke-miterlimit="10" stroke-dasharray="3"/></g><g transform="translate(-78,-142) scale(1,1)"><path fill="none" stroke="#000000" d="M 765.8373251423759 280.209517756016 L 776 276 L 765.8373251423758 271.790482243984" stroke-miterlimit="10"/></g><g transform="translate(-78,-142) scale(1,1)"><rect fill="#C0C0C0" stroke="none" x="498" y="274" width="160.68994140625" height="85" opacity="0.2"/></g><g transform="translate(-78,-142) scale(1,1)"><rect fill="#ffffff" stroke="none" x="491" y="267" width="160.68994140625" height="85"/></g><g transform="translate(-78,-142) scale(1,1)"><path fill="none" stroke="#000000" d="M 491 267 L 651.68994140625 267 L 651.68994140625 352 L 491 352 L 491 267 Z Z" stroke-miterlimit="10"/></g><g transform="translate(-78,-142) scale(1,1)"><path fill="none" stroke="#000000" d="M 491 292 L 651.68994140625 292" stroke-miterlimit="10"/></g><g transform="translate(-78,-142) scale(1,1)"><path fill="none" stroke="#000000" d="M 491 315 L 651.68994140625 315" stroke-miterlimit="10"/></g><g transform="translate(-78,-142) scale(1,1)"><g><path fill="none" stroke="none"/><text fill="#000000" stroke="none" font-family="Arial" font-size="13px" font-style="normal" font-weight="bold" text-decoration="none" x="517.87548828125" y="286.5">Notification Centre</text></g></g><g transform="translate(-78,-142) scale(1,1)"><g><path fill="none" stroke="none"/><text fill="#000000" stroke="none" font-family="Arial" font-size="13px" font-style="normal" font-weight="normal" text-decoration="none" x="496" y="309.5">-SubscribedClients</text></g></g><g transform="translate(-78,-142) scale(1,1)"><g><path fill="none" stroke="none"/><text fill="#000000" stroke="none" font-family="Arial" font-size="13px" font-style="normal" font-weight="normal" text-decoration="none" x="496" y="332.5">+ListenEvent()</text></g></g><g transform="translate(-78,-142) scale(1,1)"><g><path fill="none" stroke="none"/><text fill="#000000" stroke="none" font-family="Arial" font-size="13px" font-style="normal" font-weight="normal" text-decoration="none" x="496" y="347.5">+SendEvent()</text></g></g><g transform="translate(-78,-142) scale(1,1)"><rect fill="#C0C0C0" stroke="none" x="870" y="266" width="97.50537109375" height="100" opacity="0.2"/></g><g transform="translate(-78,-142) scale(1,1)"><rect fill="#ffffff" stroke="none" x="863" y="259" width="97.50537109375" height="100"/></g><g transform="translate(-78,-142) scale(1,1)"><path fill="none" stroke="#000000" d="M 863 259 L 960.50537109375 259 L 960.50537109375 359 L 863 359 L 863 259 Z Z" stroke-miterlimit="10"/></g><g transform="translate(-78,-142) scale(1,1)"><path fill="none" stroke="#000000" d="M 863 284 L 960.50537109375 284" stroke-miterlimit="10"/></g><g transform="translate(-78,-142) scale(1,1)"><path fill="none" stroke="#000000" d="M 863 322 L 960.50537109375 322" stroke-miterlimit="10"/></g><g transform="translate(-78,-142) scale(1,1)"><g><path fill="none" stroke="none"/><text fill="#000000" stroke="none" font-family="Arial" font-size="13px" font-style="normal" font-weight="bold" text-decoration="none" x="882.610595703125" y="278.5">Work Line</text></g></g><g transform="translate(-78,-142) scale(1,1)"><g><path fill="none" stroke="none"/><text fill="#000000" stroke="none" font-family="Arial" font-size="13px" font-style="normal" font-weight="normal" text-decoration="none" x="868" y="301.5">-WorkerList</text></g></g><g transform="translate(-78,-142) scale(1,1)"><g><path fill="none" stroke="none"/><text fill="#000000" stroke="none" font-family="Arial" font-size="13px" font-style="normal" font-weight="normal" text-decoration="none" x="868" y="316.5">-MachineList</text></g></g><g transform="translate(-78,-142) scale(1,1)"><g><path fill="none" stroke="none"/><text fill="#000000" stroke="none" font-family="Arial" font-size="13px" font-style="normal" font-weight="normal" text-decoration="none" x="868" y="339.5">+Subscribe()</text></g></g><g transform="translate(-78,-142) scale(1,1)"><g><path fill="none" stroke="none"/><text fill="#000000" stroke="none" font-family="Arial" font-size="13px" font-style="normal" font-weight="normal" text-decoration="none" x="868" y="354.5">+Unsubscribe()</text></g></g><g transform="translate(-78,-142) scale(1,1)"><rect fill="#C0C0C0" stroke="none" x="254" y="430" width="275.20000000000005" height="15" opacity="0.2"/></g><g transform="translate(-78,-142) scale(1,1)"><rect fill="#C0C0C0" stroke="none" x="254" y="444" width="688" height="218" opacity="0.2"/></g><g transform="translate(-78,-142) scale(1,1)"><rect fill="#ffffff" stroke="none" x="247" y="438" width="688" height="217"/></g><g transform="translate(-78,-142) scale(1,1)"><path fill="none" stroke="#000000" d="M 247 438 L 935 438 L 935 655 L 247 655 L 247 438 Z Z" stroke-miterlimit="10"/></g><g transform="translate(-78,-142) scale(1,1)"><rect fill="#ffffff" stroke="none" x="247" y="423" width="275.20000000000005" height="15"/></g><g transform="translate(-78,-142) scale(1,1)"><path fill="none" stroke="#000000" d="M 247 423 L 522.2 423 L 522.2 438 L 247 438 L 247 423 Z Z" stroke-miterlimit="10"/></g><g transform="translate(-78,-142) scale(1,1)"><rect fill="#ffffff" stroke="none" x="247" y="437" width="688" height="218"/></g><g transform="translate(-78,-142) scale(1,1)"><path fill="none" stroke="#000000" d="M 247 437 L 935 437 L 935 655 L 247 655 L 247 437 Z Z" stroke-miterlimit="10"/></g><g transform="translate(-78,-142) scale(1,1)"><g><path fill="none" stroke="none"/><text fill="#000000" stroke="none" font-family="Arial" font-size="13px" font-style="normal" font-weight="bold" text-decoration="none" x="551.273193359375" y="457.5">Microservices</text></g></g><g transform="translate(-78,-142) scale(1,1)"><rect fill="#C0C0C0" stroke="none" x="567" y="519" width="36.82363281250002" height="15" opacity="0.2"/></g><g transform="translate(-78,-142) scale(1,1)"><rect fill="#C0C0C0" stroke="none" x="567" y="533" width="92.05908203125" height="25" opacity="0.2"/></g><g transform="translate(-78,-142) scale(1,1)"><rect fill="#ffffff" stroke="none" x="560" y="527" width="92.05908203125" height="24"/></g><g transform="translate(-78,-142) scale(1,1)"><path fill="none" stroke="#000000" d="M 560 527 L 652.05908203125 527 L 652.05908203125 551 L 560 551 L 560 527 Z Z" stroke-miterlimit="10"/></g><g transform="translate(-78,-142) scale(1,1)"><rect fill="#ffffff" stroke="none" x="560" y="512" width="36.82363281250002" height="15"/></g><g transform="translate(-78,-142) scale(1,1)"><path fill="none" stroke="#000000" d="M 560 512 L 596.8236328125 512 L 596.8236328125 527 L 560 527 L 560 512 Z Z" stroke-miterlimit="10"/></g><g transform="translate(-78,-142) scale(1,1)"><rect fill="#ffffff" stroke="none" x="560" y="526" width="92.05908203125" height="25"/></g><g transform="translate(-78,-142) scale(1,1)"><path fill="none" stroke="#000000" d="M 560 526 L 652.05908203125 526 L 652.05908203125 551 L 560 551 L 560 526 Z Z" stroke-miterlimit="10"/></g><g transform="translate(-78,-142) scale(1,1)"><g><path fill="none" stroke="none"/><text fill="#000000" stroke="none" font-family="Arial" font-size="13px" font-style="normal" font-weight="bold" text-decoration="none" x="567.378662109375" y="546.5">IoT Simulator</text></g></g><g transform="translate(-78,-142) scale(1,1)"><rect fill="#C0C0C0" stroke="none" x="271" y="519" width="52.35000000000002" height="15" opacity="0.2"/></g><g transform="translate(-78,-142) scale(1,1)"><rect fill="#C0C0C0" stroke="none" x="271" y="533" width="130.875" height="25" opacity="0.2"/></g><g transform="translate(-78,-142) scale(1,1)"><rect fill="#ffffff" stroke="none" x="264" y="527" width="130.875" height="24"/></g><g transform="translate(-78,-142) scale(1,1)"><path fill="none" stroke="#000000" d="M 264 527 L 394.875 527 L 394.875 551 L 264 551 L 264 527 Z Z" stroke-miterlimit="10"/></g><g transform="translate(-78,-142) scale(1,1)"><rect fill="#ffffff" stroke="none" x="264" y="512" width="52.35000000000002" height="15"/></g><g transform="translate(-78,-142) scale(1,1)"><path fill="none" stroke="#000000" d="M 264 512 L 316.35 512 L 316.35 527 L 264 527 L 264 512 Z Z" stroke-miterlimit="10"/></g><g transform="translate(-78,-142) scale(1,1)"><rect fill="#ffffff" stroke="none" x="264" y="526" width="130.875" height="25"/></g><g transform="translate(-78,-142) scale(1,1)"><path fill="none" stroke="#000000" d="M 264 526 L 394.875 526 L 394.875 551 L 264 551 L 264 526 Z Z" stroke-miterlimit="10"/></g><g transform="translate(-78,-142) scale(1,1)"><g><path fill="none" stroke="none"/><text fill="#000000" stroke="none" font-family="Arial" font-size="13px" font-style="normal" font-weight="bold" text-decoration="none" x="273.562255859375" y="546.5">Analytics Visualizer</text></g></g><g transform="translate(-78,-142) scale(1,1)"><rect fill="#C0C0C0" stroke="none" x="423" y="519" width="50.4228515625" height="15" opacity="0.2"/></g><g transform="translate(-78,-142) scale(1,1)"><rect fill="#C0C0C0" stroke="none" x="423" y="533" width="126.05712890625" height="25" opacity="0.2"/></g><g transform="translate(-78,-142) scale(1,1)"><rect fill="#ffffff" stroke="none" x="416" y="527" width="126.05712890625" height="24"/></g><g transform="translate(-78,-142) scale(1,1)"><path fill="none" stroke="#000000" d="M 416 527 L 542.05712890625 527 L 542.05712890625 551 L 416 551 L 416 527 Z Z" stroke-miterlimit="10"/></g><g transform="translate(-78,-142) scale(1,1)"><rect fill="#ffffff" stroke="none" x="416" y="512" width="50.4228515625" height="15"/></g><g transform="translate(-78,-142) scale(1,1)"><path fill="none" stroke="#000000" d="M 416 512 L 466.4228515625 512 L 466.4228515625 527 L 416 527 L 416 512 Z Z" stroke-miterlimit="10"/></g><g transform="translate(-78,-142) scale(1,1)"><rect fill="#ffffff" stroke="none" x="416" y="526" width="126.05712890625" height="25"/></g><g transform="translate(-78,-142) scale(1,1)"><path fill="none" stroke="#000000" d="M 416 526 L 542.05712890625 526 L 542.05712890625 551 L 416 551 L 416 526 Z Z" stroke-miterlimit="10"/></g><g transform="translate(-78,-142) scale(1,1)"><g><path fill="none" stroke="none"/><text fill="#000000" stroke="none" font-family="Arial" font-size="13px" font-style="normal" font-weight="bold" text-decoration="none" x="424.114990234375" y="546.5">Messaging Service</text></g></g><g transform="translate(-78,-142) scale(1,1)"><rect fill="#C0C0C0" stroke="none" x="679" y="519" width="32.491992187500045" height="15" opacity="0.2"/></g><g transform="translate(-78,-142) scale(1,1)"><rect fill="#C0C0C0" stroke="none" x="679" y="533" width="81.22998046875" height="25" opacity="0.2"/></g><g transform="translate(-78,-142) scale(1,1)"><rect fill="#ffffff" stroke="none" x="672" y="527" width="81.22998046875" height="24"/></g><g transform="translate(-78,-142) scale(1,1)"><path fill="none" stroke="#000000" d="M 672 527 L 753.22998046875 527 L 753.22998046875 551 L 672 551 L 672 527 Z Z" stroke-miterlimit="10"/></g><g transform="translate(-78,-142) scale(1,1)"><rect fill="#ffffff" stroke="none" x="672" y="512" width="32.491992187500045" height="15"/></g><g transform="translate(-78,-142) scale(1,1)"><path fill="none" stroke="#000000" d="M 672 512 L 704.4919921875 512 L 704.4919921875 527 L 672 527 L 672 512 Z Z" stroke-miterlimit="10"/></g><g transform="translate(-78,-142) scale(1,1)"><rect fill="#ffffff" stroke="none" x="672" y="526" width="81.22998046875" height="25"/></g><g transform="translate(-78,-142) scale(1,1)"><path fill="none" stroke="#000000" d="M 672 526 L 753.22998046875 526 L 753.22998046875 551 L 672 551 L 672 526 Z Z" stroke-miterlimit="10"/></g><g transform="translate(-78,-142) scale(1,1)"><g><path fill="none" stroke="none"/><text fill="#000000" stroke="none" font-family="Arial" font-size="13px" font-style="normal" font-weight="bold" text-decoration="none" x="680.10546875" y="546.5">Algorythms</text></g></g><g transform="translate(-78,-142) scale(1,1)"><rect fill="#C0C0C0" stroke="none" x="775" y="519" width="61.396679687499955" height="15" opacity="0.2"/></g><g transform="translate(-78,-142) scale(1,1)"><rect fill="#C0C0C0" stroke="none" x="775" y="533" width="153.49169921875" height="25" opacity="0.2"/></g><g transform="translate(-78,-142) scale(1,1)"><rect fill="#ffffff" stroke="none" x="768" y="527" width="153.49169921875" height="24"/></g><g transform="translate(-78,-142) scale(1,1)"><path fill="none" stroke="#000000" d="M 768 527 L 921.49169921875 527 L 921.49169921875 551 L 768 551 L 768 527 Z Z" stroke-miterlimit="10"/></g><g transform="translate(-78,-142) scale(1,1)"><rect fill="#ffffff" stroke="none" x="768" y="512" width="61.396679687499955" height="15"/></g><g transform="translate(-78,-142) scale(1,1)"><path fill="none" stroke="#000000" d="M 768 512 L 829.3966796875 512 L 829.3966796875 527 L 768 527 L 768 512 Z Z" stroke-miterlimit="10"/></g><g transform="translate(-78,-142) scale(1,1)"><rect fill="#ffffff" stroke="none" x="768" y="526" width="153.49169921875" height="25"/></g><g transform="translate(-78,-142) scale(1,1)"><path fill="none" stroke="#000000" d="M 768 526 L 921.49169921875 526 L 921.49169921875 551 L 768 551 L 768 526 Z Z" stroke-miterlimit="10"/></g><g transform="translate(-78,-142) scale(1,1)"><g><path fill="none" stroke="none"/><text fill="#000000" stroke="none" font-family="Arial" font-size="13px" font-style="normal" font-weight="bold" text-decoration="none" x="777.911376953125" y="546.5">Resources Assignment</text></g></g><g transform="translate(-78,-142) scale(1,1)"><path fill="none" stroke="#000000" d="M 575 352 L 575 423" stroke-miterlimit="10" stroke-dasharray="3"/></g><g transform="translate(-78,-142) scale(1,1)"><path fill="none" stroke="#000000" d="M 570.790482243984 412.83732514237585 L 575 423 L 579.209517756016 412.83732514237585" stroke-miterlimit="10"/></g></g></svg>