<svg version="1.1" xmlns="http://www.w3.org/2000/svg" xmlns:xlink="http://www.w3.org/1999/xlink" width="812" height="556"><defs/><g><g transform="translate(-278,-182) scale(1,1)"><rect fill="#C0C0C0" stroke="none" x="295" y="199" width="316.79999999999995" height="15" opacity="0.2"/></g><g transform="translate(-278,-182) scale(1,1)"><rect fill="#C0C0C0" stroke="none" x="295" y="213" width="792" height="522" opacity="0.2"/></g><g transform="translate(-278,-182) scale(1,1)"><rect fill="#ffffff" stroke="none" x="288" y="207" width="792" height="521"/></g><g transform="translate(-278,-182) scale(1,1)"><path fill="none" stroke="#000000" d="M 288 207 L 1080 207 L 1080 728 L 288 728 L 288 207 Z Z" stroke-miterlimit="10"/></g><g transform="translate(-278,-182) scale(1,1)"><rect fill="#ffffff" stroke="none" x="288" y="192" width="316.79999999999995" height="15"/></g><g transform="translate(-278,-182) scale(1,1)"><path fill="none" stroke="#000000" d="M 288 192 L 604.8 192 L 604.8 207 L 288 207 L 288 192 Z Z" stroke-miterlimit="10"/></g><g transform="translate(-278,-182) scale(1,1)"><rect fill="#ffffff" stroke="none" x="288" y="206" width="792" height="522"/></g><g transform="translate(-278,-182) scale(1,1)"><path fill="none" stroke="#000000" d="M 288 206 L 1080 206 L 1080 728 L 288 728 L 288 206 Z Z" stroke-miterlimit="10"/></g><g transform="translate(-278,-182) scale(1,1)"><g><path fill="none" stroke="none"/><text fill="#000000" stroke="none" font-family="Arial" font-size="13px" font-style="normal" font-weight="bold" text-decoration="none" x="628.124755859375" y="226.5">Analytics Visualizer</text></g></g><g transform="translate(-278,-182) scale(1,1)"><path fill="none" stroke="#000000" d="M 840 323 L 571 323" stroke-miterlimit="10"/></g><g transform="translate(-278,-182) scale(1,1)"><path fill="#FFFFFF" stroke="none" d="M 581.1626748576241 318.790482243984 L 571 323 L 581.1626748576241 327.209517756016 L 593 323"/></g><g transform="translate(-278,-182) scale(1,1)"><path fill="none" stroke="#000000" d="M 581.1626748576241 318.790482243984 L 571 323 L 581.1626748576241 327.209517756016 L 593 323 L 581.1626748576241 318.790482243984" stroke-miterlimit="10"/></g><g transform="translate(-278,-182) scale(1,1)"><path fill="none" stroke="#000000" d="M 480 480 L 480 408" stroke-miterlimit="10"/></g><g transform="translate(-278,-182) scale(1,1)"><path fill="none" stroke="#000000" d="M 484.209517756016 418.16267485762415 L 480 408 L 475.790482243984 418.16267485762415" stroke-miterlimit="10"/></g><g transform="translate(-278,-182) scale(1,1)"><path fill="none" stroke="#000000" d="M 800 472 L 800 424 L 888 424 L 888 358" stroke-miterlimit="10" stroke-dasharray="3"/></g><g transform="translate(-278,-182) scale(1,1)"><path fill="#FFFFFF" stroke="none" d="M 896.419035512032 378.3253497152483 L 888 358 L 879.580964487968 378.3253497152483"/></g><g transform="translate(-278,-182) scale(1,1)"><path fill="none" stroke="#000000" d="M 896.419035512032 378.3253497152483 L 888 358 L 879.580964487968 378.3253497152483 L 896.419035512032 378.3253497152483" stroke-miterlimit="10"/></g><g transform="translate(-278,-182) scale(1,1)"><path fill="none" stroke="#000000" d="M 968 472 L 968 424 L 888 424 L 888 358" stroke-miterlimit="10" stroke-dasharray="3"/></g><g transform="translate(-278,-182) scale(1,1)"><path fill="#FFFFFF" stroke="none" d="M 896.419035512032 378.3253497152483 L 888 358 L 879.580964487968 378.3253497152483"/></g><g transform="translate(-278,-182) scale(1,1)"><path fill="none" stroke="#000000" d="M 896.419035512032 378.3253497152483 L 888 358 L 879.580964487968 378.3253497152483 L 896.419035512032 378.3253497152483" stroke-miterlimit="10"/></g><g transform="translate(-278,-182) scale(1,1)"><rect fill="#C0C0C0" stroke="none" x="391" y="295" width="187.46435546875" height="120" opacity="0.2"/></g><g transform="translate(-278,-182) scale(1,1)"><rect fill="#ffffff" stroke="none" x="384" y="288" width="187.46435546875" height="120"/></g><g transform="translate(-278,-182) scale(1,1)"><path fill="none" stroke="#000000" d="M 384 288 L 571.46435546875 288 L 571.46435546875 408 L 384 408 L 384 288 Z Z" stroke-miterlimit="10"/></g><g transform="translate(-278,-182) scale(1,1)"><path fill="none" stroke="#000000" d="M 384 313 L 571.46435546875 313" stroke-miterlimit="10"/></g><g transform="translate(-278,-182) scale(1,1)"><path fill="none" stroke="#000000" d="M 384 351 L 571.46435546875 351" stroke-miterlimit="10"/></g><g transform="translate(-278,-182) scale(1,1)"><g><path fill="none" stroke="none"/><text fill="#000000" stroke="none" font-family="Arial" font-size="13px" font-style="normal" font-weight="bold" text-decoration="none" x="433.416015625" y="307.5">Analytic Viewer</text></g></g><g transform="translate(-278,-182) scale(1,1)"><g><path fill="none" stroke="none"/><text fill="#000000" stroke="none" font-family="Arial" font-size="13px" font-style="normal" font-weight="normal" text-decoration="none" x="389" y="330.5">-subscribedClients: Subscriber</text></g></g><g transform="translate(-278,-182) scale(1,1)"><g><path fill="none" stroke="none"/><text fill="#000000" stroke="none" font-family="Arial" font-size="13px" font-style="normal" font-weight="normal" text-decoration="none" x="389" y="345.5">-mainState</text></g></g><g transform="translate(-278,-182) scale(1,1)"><g><path fill="none" stroke="none"/><text fill="#000000" stroke="none" font-family="Arial" font-size="13px" font-style="normal" font-weight="normal" text-decoration="none" x="389" y="368.5">+subscribe(s: Subscriber)</text></g></g><g transform="translate(-278,-182) scale(1,1)"><g><path fill="none" stroke="none"/><text fill="#000000" stroke="none" font-family="Arial" font-size="13px" font-style="normal" font-weight="normal" text-decoration="none" x="389" y="383.5">+unsubscribe(s: Subscriber)</text></g></g><g transform="translate(-278,-182) scale(1,1)"><g><path fill="none" stroke="none"/><text fill="#000000" stroke="none" font-family="Arial" font-size="13px" font-style="normal" font-weight="normal" text-decoration="none" x="389" y="398.5">+notifySubscribers()</text></g></g><g transform="translate(-278,-182) scale(1,1)"><rect fill="#C0C0C0" stroke="none" x="847" y="295" width="89.57080078125" height="70" opacity="0.2"/></g><g transform="translate(-278,-182) scale(1,1)"><rect fill="#ffffff" stroke="none" x="840" y="288" width="89.57080078125" height="70"/></g><g transform="translate(-278,-182) scale(1,1)"><path fill="none" stroke="#000000" d="M 840 288 L 929.57080078125 288 L 929.57080078125 358 L 840 358 L 840 288 Z Z" stroke-miterlimit="10"/></g><g transform="translate(-278,-182) scale(1,1)"><path fill="none" stroke="#000000" d="M 840 326 L 929.57080078125 326" stroke-miterlimit="10"/></g><g transform="translate(-278,-182) scale(1,1)"><g><path fill="none" stroke="none"/><text fill="#000000" stroke="none" font-family="Arial" font-size="13px" font-style="normal" font-weight="normal" text-decoration="none" x="852.625" y="305.5">«interface»</text></g></g><g transform="translate(-278,-182) scale(1,1)"><g><path fill="none" stroke="none"/><text fill="#000000" stroke="none" font-family="Arial" font-size="13px" font-style="normal" font-weight="bold" text-decoration="none" x="853.716796875" y="320.5">Subscriber</text></g></g><g transform="translate(-278,-182) scale(1,1)"><g><path fill="none" stroke="none"/><text fill="#000000" stroke="none" font-family="Arial" font-size="13px" font-style="normal" font-weight="normal" text-decoration="none" x="845" y="343.5">+update()</text></g></g><g transform="translate(-278,-182) scale(1,1)"><rect fill="#C0C0C0" stroke="none" x="759" y="479" width="103.275390625" height="62" opacity="0.2"/></g><g transform="translate(-278,-182) scale(1,1)"><rect fill="#ffffff" stroke="none" x="752" y="472" width="103.275390625" height="62"/></g><g transform="translate(-278,-182) scale(1,1)"><path fill="none" stroke="#000000" d="M 752 472 L 855.275390625 472 L 855.275390625 534 L 752 534 L 752 472 Z Z" stroke-miterlimit="10"/></g><g transform="translate(-278,-182) scale(1,1)"><path fill="none" stroke="#000000" d="M 752 497 L 855.275390625 497" stroke-miterlimit="10"/></g><g transform="translate(-278,-182) scale(1,1)"><g><path fill="none" stroke="none"/><text fill="#000000" stroke="none" font-family="Arial" font-size="13px" font-style="normal" font-weight="bold" text-decoration="none" x="779.069091796875" y="491.5">Machine</text></g></g><g transform="translate(-278,-182) scale(1,1)"><g><path fill="none" stroke="none"/><text fill="#000000" stroke="none" font-family="Arial" font-size="13px" font-style="normal" font-weight="normal" text-decoration="none" x="757" y="514.5">+update()</text></g></g><g transform="translate(-278,-182) scale(1,1)"><g><path fill="none" stroke="none"/><text fill="#000000" stroke="none" font-family="Arial" font-size="13px" font-style="normal" font-weight="normal" text-decoration="none" x="757" y="529.5">+viewAnalytics()</text></g></g><g transform="translate(-278,-182) scale(1,1)"><rect fill="#C0C0C0" stroke="none" x="927" y="479" width="103.275390625" height="62" opacity="0.2"/></g><g transform="translate(-278,-182) scale(1,1)"><rect fill="#ffffff" stroke="none" x="920" y="472" width="103.275390625" height="62"/></g><g transform="translate(-278,-182) scale(1,1)"><path fill="none" stroke="#000000" d="M 920 472 L 1023.275390625 472 L 1023.275390625 534 L 920 534 L 920 472 Z Z" stroke-miterlimit="10"/></g><g transform="translate(-278,-182) scale(1,1)"><path fill="none" stroke="#000000" d="M 920 497 L 1023.275390625 497" stroke-miterlimit="10"/></g><g transform="translate(-278,-182) scale(1,1)"><g><path fill="none" stroke="none"/><text fill="#000000" stroke="none" font-family="Arial" font-size="13px" font-style="normal" font-weight="bold" text-decoration="none" x="945.98681640625" y="491.5">Operator</text></g></g><g transform="translate(-278,-182) scale(1,1)"><g><path fill="none" stroke="none"/><text fill="#000000" stroke="none" font-family="Arial" font-size="13px" font-style="normal" font-weight="normal" text-decoration="none" x="925" y="514.5">+update()</text></g></g><g transform="translate(-278,-182) scale(1,1)"><g><path fill="none" stroke="none"/><text fill="#000000" stroke="none" font-family="Arial" font-size="13px" font-style="normal" font-weight="normal" text-decoration="none" x="925" y="529.5">+viewAnalytics()</text></g></g><g transform="translate(-278,-182) scale(1,1)"><rect fill="#C0C0C0" stroke="none" x="423" y="487" width="132.9189453125" height="47" opacity="0.2"/></g><g transform="translate(-278,-182) scale(1,1)"><rect fill="#ffffff" stroke="none" x="416" y="480" width="132.9189453125" height="47"/></g><g transform="translate(-278,-182) scale(1,1)"><path fill="none" stroke="#000000" d="M 416 480 L 548.9189453125 480 L 548.9189453125 527 L 416 527 L 416 480 Z Z" stroke-miterlimit="10"/></g><g transform="translate(-278,-182) scale(1,1)"><path fill="none" stroke="#000000" d="M 416 505 L 548.9189453125 505" stroke-miterlimit="10"/></g><g transform="translate(-278,-182) scale(1,1)"><g><path fill="none" stroke="none"/><text fill="#000000" stroke="none" font-family="Arial" font-size="13px" font-style="normal" font-weight="bold" text-decoration="none" x="465.84130859375" y="499.5">Client</text></g></g><g transform="translate(-278,-182) scale(1,1)"><g><path fill="none" stroke="none"/><text fill="#000000" stroke="none" font-family="Arial" font-size="13px" font-style="normal" font-weight="normal" text-decoration="none" x="421" y="522.5">+createSubscription()</text></g></g><g transform="translate(-278,-182) scale(1,1)"><path fill="none" stroke="#000000" d="M 549 518 L 752 518" stroke-miterlimit="10" stroke-dasharray="3"/></g><g transform="translate(-278,-182) scale(1,1)"><path fill="none" stroke="#000000" d="M 741.8373251423759 522.209517756016 L 752 518 L 741.8373251423758 513.790482243984" stroke-miterlimit="10"/></g><g transform="translate(-278,-182) scale(1,1)"><path fill="none" stroke="#000000" d="M 480 527 L 480 576 L 976 576 L 976 534" stroke-miterlimit="10" stroke-dasharray="3"/></g><g transform="translate(-278,-182) scale(1,1)"><path fill="none" stroke="#000000" d="M 980.209517756016 544.1626748576241 L 976 534 L 971.790482243984 544.1626748576241" stroke-miterlimit="10"/></g><g transform="translate(-278,-182) scale(1,1)"><path fill="#ffffff" stroke="none" d="M 312 616 L 456.3017578125 616 L 466.3017578125 626 L 466.3017578125 704 L 312 704 L 312 616"/></g><g transform="translate(-278,-182) scale(1,1)"><path fill="none" stroke="#000000" d="M 312 616 L 456.3017578125 616 L 466.3017578125 626 L 466.3017578125 704 L 312 704 L 312 616 L 312 616" stroke-miterlimit="10"/></g><g transform="translate(-278,-182) scale(1,1)"><path fill="none" stroke="#000000" d="M 456.3017578125 616 L 456.3017578125 626 L 466.3017578125 626 L 456.3017578125 616" stroke-miterlimit="10"/></g><g transform="translate(-278,-182) scale(1,1)"><g><path fill="none" stroke="none"/><text fill="#000000" stroke="none" font-family="Arial" font-size="13px" font-style="normal" font-weight="normal" text-decoration="none" x="317" y="634">We assume that all</text><text fill="#000000" stroke="none" font-family="Arial" font-size="13px" font-style="normal" font-weight="normal" text-decoration="none" x="317" y="647">attributes have get and</text><text fill="#000000" stroke="none" font-family="Arial" font-size="13px" font-style="normal" font-weight="normal" text-decoration="none" x="317" y="660">set methods and all</text><text fill="#000000" stroke="none" font-family="Arial" font-size="13px" font-style="normal" font-weight="normal" text-decoration="none" x="317" y="673">classes have constructor</text><text fill="#000000" stroke="none" font-family="Arial" font-size="13px" font-style="normal" font-weight="normal" text-decoration="none" x="317" y="686">and destructor methods</text></g></g></g></svg>