<svg version="1.1" xmlns="http://www.w3.org/2000/svg" xmlns:xlink="http://www.w3.org/1999/xlink" width="1060" height="668"><defs/><g><g transform="translate(-38,-134) scale(1,1)"><rect fill="#C0C0C0" stroke="none" x="135" y="151" width="96" height="15" opacity="0.2"/></g><g transform="translate(-38,-134) scale(1,1)"><rect fill="#C0C0C0" stroke="none" x="135" y="165" width="240" height="218" opacity="0.2"/></g><g transform="translate(-38,-134) scale(1,1)"><rect fill="#ffffff" stroke="none" x="128" y="159" width="240" height="217"/></g><g transform="translate(-38,-134) scale(1,1)"><path fill="none" stroke="#000000" d="M 128 159 L 368 159 L 368 376 L 128 376 L 128 159 Z Z" stroke-miterlimit="10"/></g><g transform="translate(-38,-134) scale(1,1)"><rect fill="#ffffff" stroke="none" x="128" y="144" width="96" height="15"/></g><g transform="translate(-38,-134) scale(1,1)"><path fill="none" stroke="#000000" d="M 128 144 L 224 144 L 224 159 L 128 159 L 128 144 Z Z" stroke-miterlimit="10"/></g><g transform="translate(-38,-134) scale(1,1)"><rect fill="#ffffff" stroke="none" x="128" y="158" width="240" height="218"/></g><g transform="translate(-38,-134) scale(1,1)"><path fill="none" stroke="#000000" d="M 128 158 L 368 158 L 368 376 L 128 376 L 128 158 Z Z" stroke-miterlimit="10"/></g><g transform="translate(-38,-134) scale(1,1)"><g><path fill="none" stroke="none"/><text fill="#000000" stroke="none" font-family="Arial" font-size="13px" font-style="normal" font-weight="bold" text-decoration="none" x="203.1982421875" y="178.5">Event Producer</text></g></g><g transform="translate(-38,-134) scale(1,1)"><rect fill="#C0C0C0" stroke="none" x="438" y="151" width="102.79999999999995" height="15" opacity="0.2"/></g><g transform="translate(-38,-134) scale(1,1)"><rect fill="#C0C0C0" stroke="none" x="438" y="165" width="257" height="218" opacity="0.2"/></g><g transform="translate(-38,-134) scale(1,1)"><rect fill="#ffffff" stroke="none" x="431" y="159" width="257" height="217"/></g><g transform="translate(-38,-134) scale(1,1)"><path fill="none" stroke="#000000" d="M 431 159 L 688 159 L 688 376 L 431 376 L 431 159 Z Z" stroke-miterlimit="10"/></g><g transform="translate(-38,-134) scale(1,1)"><rect fill="#ffffff" stroke="none" x="431" y="144" width="102.79999999999995" height="15"/></g><g transform="translate(-38,-134) scale(1,1)"><path fill="none" stroke="#000000" d="M 431 144 L 533.8 144 L 533.8 159 L 431 159 L 431 144 Z Z" stroke-miterlimit="10"/></g><g transform="translate(-38,-134) scale(1,1)"><rect fill="#ffffff" stroke="none" x="431" y="158" width="257" height="218"/></g><g transform="translate(-38,-134) scale(1,1)"><path fill="none" stroke="#000000" d="M 431 158 L 688 158 L 688 376 L 431 376 L 431 158 Z Z" stroke-miterlimit="10"/></g><g transform="translate(-38,-134) scale(1,1)"><g><path fill="none" stroke="none"/><text fill="#000000" stroke="none" font-family="Arial" font-size="13px" font-style="normal" font-weight="bold" text-decoration="none" x="516.859619140625" y="178.5">Event Channel</text></g></g><g transform="translate(-38,-134) scale(1,1)"><rect fill="#C0C0C0" stroke="none" x="767" y="151" width="131.20000000000005" height="15" opacity="0.2"/></g><g transform="translate(-38,-134) scale(1,1)"><rect fill="#C0C0C0" stroke="none" x="767" y="165" width="328" height="426" opacity="0.2"/></g><g transform="translate(-38,-134) scale(1,1)"><rect fill="#ffffff" stroke="none" x="760" y="159" width="328" height="425"/></g><g transform="translate(-38,-134) scale(1,1)"><path fill="none" stroke="#000000" d="M 760 159 L 1088 159 L 1088 584 L 760 584 L 760 159 Z Z" stroke-miterlimit="10"/></g><g transform="translate(-38,-134) scale(1,1)"><rect fill="#ffffff" stroke="none" x="760" y="144" width="131.20000000000005" height="15"/></g><g transform="translate(-38,-134) scale(1,1)"><path fill="none" stroke="#000000" d="M 760 144 L 891.2 144 L 891.2 159 L 760 159 L 760 144 Z Z" stroke-miterlimit="10"/></g><g transform="translate(-38,-134) scale(1,1)"><rect fill="#ffffff" stroke="none" x="760" y="158" width="328" height="426"/></g><g transform="translate(-38,-134) scale(1,1)"><path fill="none" stroke="#000000" d="M 760 158 L 1088 158 L 1088 584 L 760 584 L 760 158 Z Z" stroke-miterlimit="10"/></g><g transform="translate(-38,-134) scale(1,1)"><g><path fill="none" stroke="none"/><text fill="#000000" stroke="none" font-family="Arial" font-size="13px" font-style="normal" font-weight="bold" text-decoration="none" x="875.589599609375" y="178.5">Event Consumer</text></g></g><g transform="translate(-38,-134) scale(1,1)"><path fill="none" stroke="#000000" d="M 368 276 L 431 276" stroke-miterlimit="10" stroke-dasharray="3"/></g><g transform="translate(-38,-134) scale(1,1)"><path fill="none" stroke="#000000" d="M 420.83732514237585 280.209517756016 L 431 276 L 420.83732514237585 271.790482243984" stroke-miterlimit="10"/></g><g transform="translate(-38,-134) scale(1,1)"><path fill="none" stroke="#000000" d="M 688 268 L 760 268" stroke-miterlimit="10" stroke-dasharray="3"/></g><g transform="translate(-38,-134) scale(1,1)"><path fill="none" stroke="#000000" d="M 749.8373251423759 272.209517756016 L 760 268 L 749.8373251423758 263.790482243984" stroke-miterlimit="10"/></g><g transform="translate(-38,-134) scale(1,1)"><rect fill="#C0C0C0" stroke="none" x="110" y="606" width="275.2" height="15" opacity="0.2"/></g><g transform="translate(-38,-134) scale(1,1)"><rect fill="#C0C0C0" stroke="none" x="110" y="620" width="688" height="179" opacity="0.2"/></g><g transform="translate(-38,-134) scale(1,1)"><rect fill="#ffffff" stroke="none" x="103" y="614" width="688" height="178"/></g><g transform="translate(-38,-134) scale(1,1)"><path fill="none" stroke="#000000" d="M 103 614 L 791 614 L 791 792 L 103 792 L 103 614 Z Z" stroke-miterlimit="10"/></g><g transform="translate(-38,-134) scale(1,1)"><rect fill="#ffffff" stroke="none" x="103" y="599" width="275.2" height="15"/></g><g transform="translate(-38,-134) scale(1,1)"><path fill="none" stroke="#000000" d="M 103 599 L 378.2 599 L 378.2 614 L 103 614 L 103 599 Z Z" stroke-miterlimit="10"/></g><g transform="translate(-38,-134) scale(1,1)"><rect fill="#ffffff" stroke="none" x="103" y="613" width="688" height="179"/></g><g transform="translate(-38,-134) scale(1,1)"><path fill="none" stroke="#000000" d="M 103 613 L 791 613 L 791 792 L 103 792 L 103 613 Z Z" stroke-miterlimit="10"/></g><g transform="translate(-38,-134) scale(1,1)"><g><path fill="none" stroke="none"/><text fill="#000000" stroke="none" font-family="Arial" font-size="13px" font-style="normal" font-weight="bold" text-decoration="none" x="407.273193359375" y="633.5">Microservices</text></g></g><g transform="translate(-38,-134) scale(1,1)"><rect fill="#C0C0C0" stroke="none" x="423" y="663" width="36.82363281250002" height="15" opacity="0.2"/></g><g transform="translate(-38,-134) scale(1,1)"><rect fill="#C0C0C0" stroke="none" x="423" y="677" width="92.05908203125" height="25" opacity="0.2"/></g><g transform="translate(-38,-134) scale(1,1)"><rect fill="#ffffff" stroke="none" x="416" y="671" width="92.05908203125" height="24"/></g><g transform="translate(-38,-134) scale(1,1)"><path fill="none" stroke="#000000" d="M 416 671 L 508.05908203125 671 L 508.05908203125 695 L 416 695 L 416 671 Z Z" stroke-miterlimit="10"/></g><g transform="translate(-38,-134) scale(1,1)"><rect fill="#ffffff" stroke="none" x="416" y="656" width="36.82363281250002" height="15"/></g><g transform="translate(-38,-134) scale(1,1)"><path fill="none" stroke="#000000" d="M 416 656 L 452.8236328125 656 L 452.8236328125 671 L 416 671 L 416 656 Z Z" stroke-miterlimit="10"/></g><g transform="translate(-38,-134) scale(1,1)"><rect fill="#ffffff" stroke="none" x="416" y="670" width="92.05908203125" height="25"/></g><g transform="translate(-38,-134) scale(1,1)"><path fill="none" stroke="#000000" d="M 416 670 L 508.05908203125 670 L 508.05908203125 695 L 416 695 L 416 670 Z Z" stroke-miterlimit="10"/></g><g transform="translate(-38,-134) scale(1,1)"><g><path fill="none" stroke="none"/><text fill="#000000" stroke="none" font-family="Arial" font-size="13px" font-style="normal" font-weight="bold" text-decoration="none" x="423.378662109375" y="690.5">IoT Simulator</text></g></g><g transform="translate(-38,-134) scale(1,1)"><rect fill="#C0C0C0" stroke="none" x="127" y="663" width="52.349999999999994" height="15" opacity="0.2"/></g><g transform="translate(-38,-134) scale(1,1)"><rect fill="#C0C0C0" stroke="none" x="127" y="677" width="130.875" height="25" opacity="0.2"/></g><g transform="translate(-38,-134) scale(1,1)"><rect fill="#ffffff" stroke="none" x="120" y="671" width="130.875" height="24"/></g><g transform="translate(-38,-134) scale(1,1)"><path fill="none" stroke="#000000" d="M 120 671 L 250.875 671 L 250.875 695 L 120 695 L 120 671 Z Z" stroke-miterlimit="10"/></g><g transform="translate(-38,-134) scale(1,1)"><rect fill="#ffffff" stroke="none" x="120" y="656" width="52.349999999999994" height="15"/></g><g transform="translate(-38,-134) scale(1,1)"><path fill="none" stroke="#000000" d="M 120 656 L 172.35 656 L 172.35 671 L 120 671 L 120 656 Z Z" stroke-miterlimit="10"/></g><g transform="translate(-38,-134) scale(1,1)"><rect fill="#ffffff" stroke="none" x="120" y="670" width="130.875" height="25"/></g><g transform="translate(-38,-134) scale(1,1)"><path fill="none" stroke="#000000" d="M 120 670 L 250.875 670 L 250.875 695 L 120 695 L 120 670 Z Z" stroke-miterlimit="10"/></g><g transform="translate(-38,-134) scale(1,1)"><g><path fill="none" stroke="none"/><text fill="#000000" stroke="none" font-family="Arial" font-size="13px" font-style="normal" font-weight="bold" text-decoration="none" x="129.562255859375" y="690.5">Analytics Visualizer</text></g></g><g transform="translate(-38,-134) scale(1,1)"><rect fill="#C0C0C0" stroke="none" x="279" y="663" width="50.4228515625" height="15" opacity="0.2"/></g><g transform="translate(-38,-134) scale(1,1)"><rect fill="#C0C0C0" stroke="none" x="279" y="677" width="126.05712890625" height="25" opacity="0.2"/></g><g transform="translate(-38,-134) scale(1,1)"><rect fill="#ffffff" stroke="none" x="272" y="671" width="126.05712890625" height="24"/></g><g transform="translate(-38,-134) scale(1,1)"><path fill="none" stroke="#000000" d="M 272 671 L 398.05712890625 671 L 398.05712890625 695 L 272 695 L 272 671 Z Z" stroke-miterlimit="10"/></g><g transform="translate(-38,-134) scale(1,1)"><rect fill="#ffffff" stroke="none" x="272" y="656" width="50.4228515625" height="15"/></g><g transform="translate(-38,-134) scale(1,1)"><path fill="none" stroke="#000000" d="M 272 656 L 322.4228515625 656 L 322.4228515625 671 L 272 671 L 272 656 Z Z" stroke-miterlimit="10"/></g><g transform="translate(-38,-134) scale(1,1)"><rect fill="#ffffff" stroke="none" x="272" y="670" width="126.05712890625" height="25"/></g><g transform="translate(-38,-134) scale(1,1)"><path fill="none" stroke="#000000" d="M 272 670 L 398.05712890625 670 L 398.05712890625 695 L 272 695 L 272 670 Z Z" stroke-miterlimit="10"/></g><g transform="translate(-38,-134) scale(1,1)"><g><path fill="none" stroke="none"/><text fill="#000000" stroke="none" font-family="Arial" font-size="13px" font-style="normal" font-weight="bold" text-decoration="none" x="280.114990234375" y="690.5">Messaging Service</text></g></g><g transform="translate(-38,-134) scale(1,1)"><rect fill="#C0C0C0" stroke="none" x="535" y="663" width="32.491992187500045" height="15" opacity="0.2"/></g><g transform="translate(-38,-134) scale(1,1)"><rect fill="#C0C0C0" stroke="none" x="535" y="677" width="81.22998046875" height="25" opacity="0.2"/></g><g transform="translate(-38,-134) scale(1,1)"><rect fill="#ffffff" stroke="none" x="528" y="671" width="81.22998046875" height="24"/></g><g transform="translate(-38,-134) scale(1,1)"><path fill="none" stroke="#000000" d="M 528 671 L 609.22998046875 671 L 609.22998046875 695 L 528 695 L 528 671 Z Z" stroke-miterlimit="10"/></g><g transform="translate(-38,-134) scale(1,1)"><rect fill="#ffffff" stroke="none" x="528" y="656" width="32.491992187500045" height="15"/></g><g transform="translate(-38,-134) scale(1,1)"><path fill="none" stroke="#000000" d="M 528 656 L 560.4919921875 656 L 560.4919921875 671 L 528 671 L 528 656 Z Z" stroke-miterlimit="10"/></g><g transform="translate(-38,-134) scale(1,1)"><rect fill="#ffffff" stroke="none" x="528" y="670" width="81.22998046875" height="25"/></g><g transform="translate(-38,-134) scale(1,1)"><path fill="none" stroke="#000000" d="M 528 670 L 609.22998046875 670 L 609.22998046875 695 L 528 695 L 528 670 Z Z" stroke-miterlimit="10"/></g><g transform="translate(-38,-134) scale(1,1)"><g><path fill="none" stroke="none"/><text fill="#000000" stroke="none" font-family="Arial" font-size="13px" font-style="normal" font-weight="bold" text-decoration="none" x="536.10546875" y="690.5">Algorythms</text></g></g><g transform="translate(-38,-134) scale(1,1)"><rect fill="#C0C0C0" stroke="none" x="631" y="663" width="61.396679687499955" height="15" opacity="0.2"/></g><g transform="translate(-38,-134) scale(1,1)"><rect fill="#C0C0C0" stroke="none" x="631" y="677" width="153.49169921875" height="25" opacity="0.2"/></g><g transform="translate(-38,-134) scale(1,1)"><rect fill="#ffffff" stroke="none" x="624" y="671" width="153.49169921875" height="24"/></g><g transform="translate(-38,-134) scale(1,1)"><path fill="none" stroke="#000000" d="M 624 671 L 777.49169921875 671 L 777.49169921875 695 L 624 695 L 624 671 Z Z" stroke-miterlimit="10"/></g><g transform="translate(-38,-134) scale(1,1)"><rect fill="#ffffff" stroke="none" x="624" y="656" width="61.396679687499955" height="15"/></g><g transform="translate(-38,-134) scale(1,1)"><path fill="none" stroke="#000000" d="M 624 656 L 685.3966796875 656 L 685.3966796875 671 L 624 671 L 624 656 Z Z" stroke-miterlimit="10"/></g><g transform="translate(-38,-134) scale(1,1)"><rect fill="#ffffff" stroke="none" x="624" y="670" width="153.49169921875" height="25"/></g><g transform="translate(-38,-134) scale(1,1)"><path fill="none" stroke="#000000" d="M 624 670 L 777.49169921875 670 L 777.49169921875 695 L 624 695 L 624 670 Z Z" stroke-miterlimit="10"/></g><g transform="translate(-38,-134) scale(1,1)"><g><path fill="none" stroke="none"/><text fill="#000000" stroke="none" font-family="Arial" font-size="13px" font-style="normal" font-weight="bold" text-decoration="none" x="633.911376953125" y="690.5">Resources Assignment</text></g></g><g transform="translate(-38,-134) scale(1,1)"><path fill="none" stroke="#000000" d="M 560 353 L 560 504" stroke-miterlimit="10" stroke-dasharray="3"/></g><g transform="translate(-38,-134) scale(1,1)"><path fill="none" stroke="#000000" d="M 555.790482243984 493.83732514237585 L 560 504 L 564.209517756016 493.83732514237585" stroke-miterlimit="10"/></g><g transform="translate(-38,-134) scale(1,1)"><path fill="#ffffff" stroke="none" d="M 568 712 L 765 712 L 775 722 L 775 774 L 568 774 L 568 712"/></g><g transform="translate(-38,-134) scale(1,1)"><path fill="none" stroke="#000000" d="M 568 712 L 765 712 L 775 722 L 775 774 L 568 774 L 568 712 L 568 712" stroke-miterlimit="10"/></g><g transform="translate(-38,-134) scale(1,1)"><path fill="none" stroke="#000000" d="M 765 712 L 765 722 L 775 722 L 765 712" stroke-miterlimit="10"/></g><g transform="translate(-38,-134) scale(1,1)"><g><path fill="none" stroke="none"/><text fill="#000000" stroke="none" font-family="Arial" font-size="13px" font-style="normal" font-weight="normal" text-decoration="none" x="573" y="730">The classes corresponding to</text><text fill="#000000" stroke="none" font-family="Arial" font-size="13px" font-style="normal" font-weight="normal" text-decoration="none" x="573" y="743">these packages are located in</text><text fill="#000000" stroke="none" font-family="Arial" font-size="13px" font-style="normal" font-weight="normal" text-decoration="none" x="573" y="756">different files for them to be more</text><text fill="#000000" stroke="none" font-family="Arial" font-size="13px" font-style="normal" font-weight="normal" text-decoration="none" x="573" y="769">clear and easier to view.</text></g></g><g transform="translate(-38,-134) scale(1,1)"><rect fill="#C0C0C0" stroke="none" x="519" y="511" width="87.75537109375" height="44" opacity="0.2"/></g><g transform="translate(-38,-134) scale(1,1)"><rect fill="#ffffff" stroke="none" x="512" y="504" width="87.75537109375" height="44"/></g><g transform="translate(-38,-134) scale(1,1)"><path fill="none" stroke="#000000" d="M 512 504 L 599.75537109375 504 L 599.75537109375 548 L 512 548 L 512 504 Z Z" stroke-miterlimit="10"/></g><g transform="translate(-38,-134) scale(1,1)"><g><path fill="none" stroke="none"/><text fill="#000000" stroke="none" font-family="Arial" font-size="13px" font-style="normal" font-weight="bold" text-decoration="none" x="517.944091796875" y="523.5">API Gateway</text></g></g><g transform="translate(-38,-134) scale(1,1)"><path fill="none" stroke="#000000" d="M 560 548 L 560 599" stroke-miterlimit="10" stroke-dasharray="3"/></g><g transform="translate(-38,-134) scale(1,1)"><path fill="none" stroke="#000000" d="M 555.790482243984 588.8373251423759 L 560 599 L 564.209517756016 588.8373251423759" stroke-miterlimit="10"/></g><g transform="translate(-38,-134) scale(1,1)"><rect fill="#C0C0C0" stroke="none" x="471" y="215" width="187.46435546875" height="145" opacity="0.2"/></g><g transform="translate(-38,-134) scale(1,1)"><rect fill="#ffffff" stroke="none" x="464" y="208" width="187.46435546875" height="145"/></g><g transform="translate(-38,-134) scale(1,1)"><path fill="none" stroke="#000000" d="M 464 208 L 651.46435546875 208 L 651.46435546875 353 L 464 353 L 464 208 Z Z" stroke-miterlimit="10"/></g><g transform="translate(-38,-134) scale(1,1)"><path fill="none" stroke="#000000" d="M 464 233 L 651.46435546875 233" stroke-miterlimit="10"/></g><g transform="translate(-38,-134) scale(1,1)"><path fill="none" stroke="#000000" d="M 464 271 L 651.46435546875 271" stroke-miterlimit="10"/></g><g transform="translate(-38,-134) scale(1,1)"><g><path fill="none" stroke="none"/><text fill="#000000" stroke="none" font-family="Arial" font-size="13px" font-style="normal" font-weight="bold" text-decoration="none" x="504.2626953125" y="227.5">Notification Centre</text></g></g><g transform="translate(-38,-134) scale(1,1)"><g><path fill="none" stroke="none"/><text fill="#000000" stroke="none" font-family="Arial" font-size="13px" font-style="normal" font-weight="normal" text-decoration="none" x="469" y="250.5">-subscribedClients: Subscriber</text></g></g><g transform="translate(-38,-134) scale(1,1)"><g><path fill="none" stroke="none"/><text fill="#000000" stroke="none" font-family="Arial" font-size="13px" font-style="normal" font-weight="normal" text-decoration="none" x="469" y="265.5">-mainState</text></g></g><g transform="translate(-38,-134) scale(1,1)"><g><path fill="none" stroke="none"/><text fill="#000000" stroke="none" font-family="Arial" font-size="13px" font-style="normal" font-weight="normal" text-decoration="none" x="469" y="288.5">+listenEvent()</text></g></g><g transform="translate(-38,-134) scale(1,1)"><g><path fill="none" stroke="none"/><text fill="#000000" stroke="none" font-family="Arial" font-size="13px" font-style="normal" font-weight="normal" text-decoration="none" x="469" y="303.5">+subscribe(s: Subscriber)</text></g></g><g transform="translate(-38,-134) scale(1,1)"><g><path fill="none" stroke="none"/><text fill="#000000" stroke="none" font-family="Arial" font-size="13px" font-style="normal" font-weight="normal" text-decoration="none" x="469" y="318.5">+unsubscribe(s: Subscriber)</text></g></g><g transform="translate(-38,-134) scale(1,1)"><g><path fill="none" stroke="none"/><text fill="#000000" stroke="none" font-family="Arial" font-size="13px" font-style="normal" font-weight="normal" text-decoration="none" x="469" y="333.5">+notifySubscribers()</text></g></g><g transform="translate(-38,-134) scale(1,1)"><path fill="#ffffff" stroke="none" d="M 48 448 L 192.3017578125 448 L 202.3017578125 458 L 202.3017578125 536 L 48 536 L 48 448"/></g><g transform="translate(-38,-134) scale(1,1)"><path fill="none" stroke="#000000" d="M 48 448 L 192.3017578125 448 L 202.3017578125 458 L 202.3017578125 536 L 48 536 L 48 448 L 48 448" stroke-miterlimit="10"/></g><g transform="translate(-38,-134) scale(1,1)"><path fill="none" stroke="#000000" d="M 192.3017578125 448 L 192.3017578125 458 L 202.3017578125 458 L 192.3017578125 448" stroke-miterlimit="10"/></g><g transform="translate(-38,-134) scale(1,1)"><g><path fill="none" stroke="none"/><text fill="#000000" stroke="none" font-family="Arial" font-size="13px" font-style="normal" font-weight="normal" text-decoration="none" x="53" y="466">We assume that all</text><text fill="#000000" stroke="none" font-family="Arial" font-size="13px" font-style="normal" font-weight="normal" text-decoration="none" x="53" y="479">attributes have get and</text><text fill="#000000" stroke="none" font-family="Arial" font-size="13px" font-style="normal" font-weight="normal" text-decoration="none" x="53" y="492">set methods and all</text><text fill="#000000" stroke="none" font-family="Arial" font-size="13px" font-style="normal" font-weight="normal" text-decoration="none" x="53" y="505">classes have constructor</text><text fill="#000000" stroke="none" font-family="Arial" font-size="13px" font-style="normal" font-weight="normal" text-decoration="none" x="53" y="518">and destructor methods</text></g></g><g transform="translate(-38,-134) scale(1,1)"><rect fill="#C0C0C0" stroke="none" x="799" y="199" width="103.275390625" height="100" opacity="0.2"/></g><g transform="translate(-38,-134) scale(1,1)"><rect fill="#ffffff" stroke="none" x="792" y="192" width="103.275390625" height="100"/></g><g transform="translate(-38,-134) scale(1,1)"><path fill="none" stroke="#000000" d="M 792 192 L 895.275390625 192 L 895.275390625 292 L 792 292 L 792 192 Z Z" stroke-miterlimit="10"/></g><g transform="translate(-38,-134) scale(1,1)"><path fill="none" stroke="#000000" d="M 792 217 L 895.275390625 217" stroke-miterlimit="10"/></g><g transform="translate(-38,-134) scale(1,1)"><path fill="none" stroke="#000000" d="M 792 240 L 895.275390625 240" stroke-miterlimit="10"/></g><g transform="translate(-38,-134) scale(1,1)"><g><path fill="none" stroke="none"/><text fill="#000000" stroke="none" font-family="Arial" font-size="13px" font-style="normal" font-weight="bold" text-decoration="none" x="819.069091796875" y="211.5">Machine</text></g></g><g transform="translate(-38,-134) scale(1,1)"><g><path fill="none" stroke="none"/><text fill="#000000" stroke="none" font-family="Arial" font-size="13px" font-style="normal" font-weight="normal" text-decoration="none" x="797" y="234.5">-m: Mediator</text></g></g><g transform="translate(-38,-134) scale(1,1)"><g><path fill="none" stroke="none"/><text fill="#000000" stroke="none" font-family="Arial" font-size="13px" font-style="normal" font-weight="normal" text-decoration="none" x="797" y="257.5">+update()</text></g></g><g transform="translate(-38,-134) scale(1,1)"><g><path fill="none" stroke="none"/><text fill="#000000" stroke="none" font-family="Arial" font-size="13px" font-style="normal" font-weight="normal" text-decoration="none" x="797" y="272.5">+viewAnalytics()</text></g></g><g transform="translate(-38,-134) scale(1,1)"><g><path fill="none" stroke="none"/><text fill="#000000" stroke="none" font-family="Arial" font-size="13px" font-style="normal" font-weight="normal" text-decoration="none" x="797" y="287.5">+machineTask()</text></g></g><g transform="translate(-38,-134) scale(1,1)"><rect fill="#C0C0C0" stroke="none" x="959" y="199" width="103.275390625" height="100" opacity="0.2"/></g><g transform="translate(-38,-134) scale(1,1)"><rect fill="#ffffff" stroke="none" x="952" y="192" width="103.275390625" height="100"/></g><g transform="translate(-38,-134) scale(1,1)"><path fill="none" stroke="#000000" d="M 952 192 L 1055.275390625 192 L 1055.275390625 292 L 952 292 L 952 192 Z Z" stroke-miterlimit="10"/></g><g transform="translate(-38,-134) scale(1,1)"><path fill="none" stroke="#000000" d="M 952 217 L 1055.275390625 217" stroke-miterlimit="10"/></g><g transform="translate(-38,-134) scale(1,1)"><path fill="none" stroke="#000000" d="M 952 240 L 1055.275390625 240" stroke-miterlimit="10"/></g><g transform="translate(-38,-134) scale(1,1)"><g><path fill="none" stroke="none"/><text fill="#000000" stroke="none" font-family="Arial" font-size="13px" font-style="normal" font-weight="bold" text-decoration="none" x="977.98681640625" y="211.5">Operator</text></g></g><g transform="translate(-38,-134) scale(1,1)"><g><path fill="none" stroke="none"/><text fill="#000000" stroke="none" font-family="Arial" font-size="13px" font-style="normal" font-weight="normal" text-decoration="none" x="957" y="234.5">-m: Mediator</text></g></g><g transform="translate(-38,-134) scale(1,1)"><g><path fill="none" stroke="none"/><text fill="#000000" stroke="none" font-family="Arial" font-size="13px" font-style="normal" font-weight="normal" text-decoration="none" x="957" y="257.5">+update()</text></g></g><g transform="translate(-38,-134) scale(1,1)"><g><path fill="none" stroke="none"/><text fill="#000000" stroke="none" font-family="Arial" font-size="13px" font-style="normal" font-weight="normal" text-decoration="none" x="957" y="272.5">+viewAnalytics()</text></g></g><g transform="translate(-38,-134) scale(1,1)"><g><path fill="none" stroke="none"/><text fill="#000000" stroke="none" font-family="Arial" font-size="13px" font-style="normal" font-weight="normal" text-decoration="none" x="957" y="287.5">+operatorTask()</text></g></g><g transform="translate(-38,-134) scale(1,1)"><rect fill="#C0C0C0" stroke="none" x="890" y="343" width="89.57080078125" height="60" opacity="0.2"/></g><g transform="translate(-38,-134) scale(1,1)"><rect fill="#ffffff" stroke="none" x="883" y="336" width="89.57080078125" height="60"/></g><g transform="translate(-38,-134) scale(1,1)"><path fill="none" stroke="#000000" d="M 883 336 L 972.57080078125 336 L 972.57080078125 396 L 883 396 L 883 336 Z Z" stroke-miterlimit="10"/></g><g transform="translate(-38,-134) scale(1,1)"><path fill="none" stroke="#000000" d="M 883 374 L 972.57080078125 374" stroke-miterlimit="10"/></g><g transform="translate(-38,-134) scale(1,1)"><g><path fill="none" stroke="none"/><text fill="#000000" stroke="none" font-family="Arial" font-size="13px" font-style="normal" font-weight="normal" text-decoration="none" x="895.625" y="353.5">«interface»</text></g></g><g transform="translate(-38,-134) scale(1,1)"><g><path fill="none" stroke="none"/><text fill="#000000" stroke="none" font-family="Arial" font-size="13px" font-style="normal" font-weight="bold" text-decoration="none" x="902.496337890625" y="368.5">Mediator</text></g></g><g transform="translate(-38,-134) scale(1,1)"><g><path fill="none" stroke="none"/><text fill="#000000" stroke="none" font-family="Arial" font-size="13px" font-style="normal" font-weight="normal" text-decoration="none" x="888" y="391.5">+notify()</text></g></g><g transform="translate(-38,-134) scale(1,1)"><rect fill="#C0C0C0" stroke="none" x="870" y="455" width="128.58349609375" height="115" opacity="0.2"/></g><g transform="translate(-38,-134) scale(1,1)"><rect fill="#ffffff" stroke="none" x="863" y="448" width="128.58349609375" height="115"/></g><g transform="translate(-38,-134) scale(1,1)"><path fill="none" stroke="#000000" d="M 863 448 L 991.58349609375 448 L 991.58349609375 563 L 863 563 L 863 448 Z Z" stroke-miterlimit="10"/></g><g transform="translate(-38,-134) scale(1,1)"><path fill="none" stroke="#000000" d="M 863 473 L 991.58349609375 473" stroke-miterlimit="10"/></g><g transform="translate(-38,-134) scale(1,1)"><path fill="none" stroke="#000000" d="M 863 511 L 991.58349609375 511" stroke-miterlimit="10"/></g><g transform="translate(-38,-134) scale(1,1)"><g><path fill="none" stroke="none"/><text fill="#000000" stroke="none" font-family="Arial" font-size="13px" font-style="normal" font-weight="bold" text-decoration="none" x="874.31103515625" y="467.5">WorkOrderModule</text></g></g><g transform="translate(-38,-134) scale(1,1)"><g><path fill="none" stroke="none"/><text fill="#000000" stroke="none" font-family="Arial" font-size="13px" font-style="normal" font-weight="normal" text-decoration="none" x="868" y="490.5">-machine</text></g></g><g transform="translate(-38,-134) scale(1,1)"><g><path fill="none" stroke="none"/><text fill="#000000" stroke="none" font-family="Arial" font-size="13px" font-style="normal" font-weight="normal" text-decoration="none" x="868" y="505.5">-operator</text></g></g><g transform="translate(-38,-134) scale(1,1)"><g><path fill="none" stroke="none"/><text fill="#000000" stroke="none" font-family="Arial" font-size="13px" font-style="normal" font-weight="normal" text-decoration="none" x="868" y="528.5">+notify()</text></g></g><g transform="translate(-38,-134) scale(1,1)"><g><path fill="none" stroke="none"/><text fill="#000000" stroke="none" font-family="Arial" font-size="13px" font-style="normal" font-weight="normal" text-decoration="none" x="868" y="543.5">+reactOnMachine()</text></g></g><g transform="translate(-38,-134) scale(1,1)"><g><path fill="none" stroke="none"/><text fill="#000000" stroke="none" font-family="Arial" font-size="13px" font-style="normal" font-weight="normal" text-decoration="none" x="868" y="558.5">+reactOnOperation()</text></g></g><g transform="translate(-38,-134) scale(1,1)"><path fill="none" stroke="#000000" d="M 927 447 L 927 397" stroke-miterlimit="10" stroke-dasharray="3"/></g><g transform="translate(-38,-134) scale(1,1)"><path fill="#FFFFFF" stroke="none" d="M 935.419035512032 417.3253497152483 L 927 397 L 918.580964487968 417.3253497152483"/></g><g transform="translate(-38,-134) scale(1,1)"><path fill="none" stroke="#000000" d="M 935.419035512032 417.3253497152483 L 927 397 L 918.580964487968 417.3253497152483 L 935.419035512032 417.3253497152483" stroke-miterlimit="10"/></g><g transform="translate(-38,-134) scale(1,1)"><path fill="none" stroke="#000000" d="M 1055 232 L 1072 232 L 1072 504 L 992 504" stroke-miterlimit="10"/></g><g transform="translate(-38,-134) scale(1,1)"><path fill="#000000" stroke="none" d="M 1002.1626748576241 499.790482243984 L 992 504 L 1002.1626748576241 508.209517756016 L 1014 504"/></g><g transform="translate(-38,-134) scale(1,1)"><path fill="none" stroke="#000000" d="M 1002.1626748576241 499.790482243984 L 992 504 L 1002.1626748576241 508.209517756016 L 1014 504 L 1002.1626748576241 499.790482243984" stroke-miterlimit="10"/></g><g transform="translate(-38,-134) scale(1,1)"><path fill="none" stroke="#000000" d="M 792 232 L 776 232 L 776 505 L 863 505" stroke-miterlimit="10"/></g><g transform="translate(-38,-134) scale(1,1)"><path fill="#000000" stroke="none" d="M 852.8373251423759 509.209517756016 L 863 505 L 852.8373251423758 500.790482243984 L 841 505"/></g><g transform="translate(-38,-134) scale(1,1)"><path fill="none" stroke="#000000" d="M 852.8373251423759 509.209517756016 L 863 505 L 852.8373251423758 500.790482243984 L 841 505 L 852.8373251423759 509.209517756016" stroke-miterlimit="10"/></g><g transform="translate(-38,-134) scale(1,1)"><path fill="none" stroke="#000000" d="M 888 292 L 888 336" stroke-miterlimit="10"/></g><g transform="translate(-38,-134) scale(1,1)"><path fill="none" stroke="#000000" d="M 883.790482243984 325.83732514237585 L 888 336 L 892.209517756016 325.83732514237585" stroke-miterlimit="10"/></g><g transform="translate(-38,-134) scale(1,1)"><path fill="none" stroke="#000000" d="M 960 292 L 960 336" stroke-miterlimit="10"/></g><g transform="translate(-38,-134) scale(1,1)"><path fill="none" stroke="#000000" d="M 955.790482243984 325.83732514237585 L 960 336 L 964.209517756016 325.83732514237585" stroke-miterlimit="10"/></g><g transform="translate(-38,-134) scale(1,1)"><rect fill="#C0C0C0" stroke="none" x="183" y="223" width="136.51171875" height="115" opacity="0.2"/></g><g transform="translate(-38,-134) scale(1,1)"><rect fill="#ffffff" stroke="none" x="176" y="216" width="136.51171875" height="115"/></g><g transform="translate(-38,-134) scale(1,1)"><path fill="none" stroke="#000000" d="M 176 216 L 312.51171875 216 L 312.51171875 331 L 176 331 L 176 216 Z Z" stroke-miterlimit="10"/></g><g transform="translate(-38,-134) scale(1,1)"><path fill="none" stroke="#000000" d="M 176 241 L 312.51171875 241" stroke-miterlimit="10"/></g><g transform="translate(-38,-134) scale(1,1)"><path fill="none" stroke="#000000" d="M 176 294 L 312.51171875 294" stroke-miterlimit="10"/></g><g transform="translate(-38,-134) scale(1,1)"><g><path fill="none" stroke="none"/><text fill="#000000" stroke="none" font-family="Arial" font-size="13px" font-style="normal" font-weight="bold" text-decoration="none" x="223.660888671875" y="235.5">Sensor</text></g></g><g transform="translate(-38,-134) scale(1,1)"><g><path fill="none" stroke="none"/><text fill="#000000" stroke="none" font-family="Arial" font-size="13px" font-style="normal" font-weight="normal" text-decoration="none" x="181" y="258.5">-family</text></g></g><g transform="translate(-38,-134) scale(1,1)"><g><path fill="none" stroke="none"/><text fill="#000000" stroke="none" font-family="Arial" font-size="13px" font-style="normal" font-weight="normal" text-decoration="none" x="181" y="273.5">-number</text></g></g><g transform="translate(-38,-134) scale(1,1)"><g><path fill="none" stroke="none"/><text fill="#000000" stroke="none" font-family="Arial" font-size="13px" font-style="normal" font-weight="normal" text-decoration="none" x="181" y="288.5">-target</text></g></g><g transform="translate(-38,-134) scale(1,1)"><g><path fill="none" stroke="none"/><text fill="#000000" stroke="none" font-family="Arial" font-size="13px" font-style="normal" font-weight="normal" text-decoration="none" x="181" y="311.5">+getInformation()</text></g></g><g transform="translate(-38,-134) scale(1,1)"><g><path fill="none" stroke="none"/><text fill="#000000" stroke="none" font-family="Arial" font-size="13px" font-style="normal" font-weight="normal" text-decoration="none" x="181" y="326.5">+sendInformation()</text></g></g></g></svg>