<svg version="1.1" xmlns="http://www.w3.org/2000/svg" xmlns:xlink="http://www.w3.org/1999/xlink" width="876" height="603"><defs/><g><g transform="translate(-262,-142) scale(1,1)"><rect fill="#C0C0C0" stroke="none" x="279" y="159" width="342.4" height="15" opacity="0.2"/></g><g transform="translate(-262,-142) scale(1,1)"><rect fill="#C0C0C0" stroke="none" x="279" y="173" width="856" height="569" opacity="0.2"/></g><g transform="translate(-262,-142) scale(1,1)"><rect fill="#ffffff" stroke="none" x="272" y="167" width="856" height="568"/></g><g transform="translate(-262,-142) scale(1,1)"><path fill="none" stroke="#000000" d="M 272 167 L 1128 167 L 1128 735 L 272 735 L 272 167 Z Z" stroke-miterlimit="10"/></g><g transform="translate(-262,-142) scale(1,1)"><rect fill="#ffffff" stroke="none" x="272" y="152" width="342.4" height="15"/></g><g transform="translate(-262,-142) scale(1,1)"><path fill="none" stroke="#000000" d="M 272 152 L 614.4 152 L 614.4 167 L 272 167 L 272 152 Z Z" stroke-miterlimit="10"/></g><g transform="translate(-262,-142) scale(1,1)"><rect fill="#ffffff" stroke="none" x="272" y="166" width="856" height="569"/></g><g transform="translate(-262,-142) scale(1,1)"><path fill="none" stroke="#000000" d="M 272 166 L 1128 166 L 1128 735 L 272 735 L 272 166 Z Z" stroke-miterlimit="10"/></g><g transform="translate(-262,-142) scale(1,1)"><g><path fill="none" stroke="none"/><text fill="#000000" stroke="none" font-family="Arial" font-size="13px" font-style="normal" font-weight="bold" text-decoration="none" x="663.885009765625" y="184.7099609375">Algorythms</text></g></g><g transform="translate(-262,-142) scale(1,1)"><rect fill="#C0C0C0" stroke="none" x="382" y="303" width="158.18896484375" height="143" opacity="0.2"/></g><g transform="translate(-262,-142) scale(1,1)"><rect fill="#ffffff" stroke="none" x="375" y="296" width="158.18896484375" height="143"/></g><g transform="translate(-262,-142) scale(1,1)"><path fill="none" stroke="#000000" d="M 375 296 L 533.18896484375 296 L 533.18896484375 439 L 375 439 L 375 296 Z Z" stroke-miterlimit="10"/></g><g transform="translate(-262,-142) scale(1,1)"><path fill="none" stroke="#000000" d="M 375 321 L 533.18896484375 321" stroke-miterlimit="10"/></g><g transform="translate(-262,-142) scale(1,1)"><path fill="none" stroke="#000000" d="M 375 344 L 533.18896484375 344" stroke-miterlimit="10"/></g><g transform="translate(-262,-142) scale(1,1)"><g><path fill="none" stroke="none"/><text fill="#000000" stroke="none" font-family="Arial" font-size="13px" font-style="normal" font-weight="bold" text-decoration="none" x="429.900390625" y="313.53857421875">Context</text></g></g><g transform="translate(-262,-142) scale(1,1)"><g><path fill="none" stroke="none"/><text fill="#000000" stroke="none" font-family="Arial" font-size="13px" font-style="normal" font-weight="normal" text-decoration="none" x="380" y="336.7099609375">-algorythm</text></g></g><g transform="translate(-262,-142) scale(1,1)"><g><path fill="none" stroke="none"/><text fill="#000000" stroke="none" font-family="Arial" font-size="13px" font-style="normal" font-weight="normal" text-decoration="none" x="380" y="359.7099609375">+setAlgorythm(algorythm)</text></g></g><g transform="translate(-262,-142) scale(1,1)"><g><path fill="none" stroke="none"/><text fill="#000000" stroke="none" font-family="Arial" font-size="13px" font-style="normal" font-weight="normal" text-decoration="none" x="380" y="374.7099609375">+doTask()</text></g></g><g transform="translate(-262,-142) scale(1,1)"><rect fill="#C0C0C0" stroke="none" x="751" y="322" width="130" height="104" opacity="0.2"/></g><g transform="translate(-262,-142) scale(1,1)"><rect fill="#ffffff" stroke="none" x="744" y="315" width="130" height="104"/></g><g transform="translate(-262,-142) scale(1,1)"><path fill="none" stroke="#000000" d="M 744 315 L 874 315 L 874 419 L 744 419 L 744 315 Z Z" stroke-miterlimit="10"/></g><g transform="translate(-262,-142) scale(1,1)"><path fill="none" stroke="#000000" d="M 744 353 L 874 353" stroke-miterlimit="10"/></g><g transform="translate(-262,-142) scale(1,1)"><g><path fill="none" stroke="none"/><text fill="#000000" stroke="none" font-family="Arial" font-size="13px" font-style="normal" font-weight="normal" text-decoration="none" x="776.839599609375" y="330.7099609375">«interface»</text></g></g><g transform="translate(-262,-142) scale(1,1)"><g><path fill="none" stroke="none"/><text fill="#000000" stroke="none" font-family="Arial" font-size="13px" font-style="normal" font-weight="bold" text-decoration="none" x="776.5" y="345.7099609375">Algorythm</text></g></g><g transform="translate(-262,-142) scale(1,1)"><g><path fill="none" stroke="none"/><text fill="#000000" stroke="none" font-family="Arial" font-size="13px" font-style="normal" font-weight="normal" text-decoration="none" x="749" y="368.7099609375">+execute()</text></g></g><g transform="translate(-262,-142) scale(1,1)"><rect fill="#C0C0C0" stroke="none" x="402" y="545" width="119.89990234375" height="55" opacity="0.2"/></g><g transform="translate(-262,-142) scale(1,1)"><rect fill="#ffffff" stroke="none" x="395" y="538" width="119.89990234375" height="55"/></g><g transform="translate(-262,-142) scale(1,1)"><path fill="none" stroke="#000000" d="M 395 538 L 514.89990234375 538 L 514.89990234375 593 L 395 593 L 395 538 Z Z" stroke-miterlimit="10"/></g><g transform="translate(-262,-142) scale(1,1)"><path fill="none" stroke="#000000" d="M 395 563 L 514.89990234375 563" stroke-miterlimit="10"/></g><g transform="translate(-262,-142) scale(1,1)"><g><path fill="none" stroke="none"/><text fill="#000000" stroke="none" font-family="Arial" font-size="13px" font-style="normal" font-weight="bold" text-decoration="none" x="436.89404296875" y="555.7099609375">Client</text></g></g><g transform="translate(-262,-142) scale(1,1)"><g><path fill="none" stroke="none"/><text fill="#000000" stroke="none" font-family="Arial" font-size="13px" font-style="normal" font-weight="normal" text-decoration="none" x="400" y="578.7099609375">+createAlgorythm()</text></g></g><g transform="translate(-262,-142) scale(1,1)"><rect fill="#C0C0C0" stroke="none" x="639" y="532" width="152.71728515625" height="80" opacity="0.2"/></g><g transform="translate(-262,-142) scale(1,1)"><rect fill="#ffffff" stroke="none" x="632" y="525" width="152.71728515625" height="80"/></g><g transform="translate(-262,-142) scale(1,1)"><path fill="none" stroke="#000000" d="M 632 525 L 784.71728515625 525 L 784.71728515625 605 L 632 605 L 632 525 Z Z" stroke-miterlimit="10"/></g><g transform="translate(-262,-142) scale(1,1)"><path fill="none" stroke="#000000" d="M 632 550 L 784.71728515625 550" stroke-miterlimit="10"/></g><g transform="translate(-262,-142) scale(1,1)"><g><path fill="none" stroke="none"/><text fill="#000000" stroke="none" font-family="Arial" font-size="13px" font-style="normal" font-weight="bold" text-decoration="none" x="636.5" y="542.7099609375">OptimizationAlgorythm</text></g></g><g transform="translate(-262,-142) scale(1,1)"><g><path fill="none" stroke="none"/><text fill="#000000" stroke="none" font-family="Arial" font-size="13px" font-style="normal" font-weight="normal" text-decoration="none" x="637" y="565.7099609375">+execute()</text></g></g><g transform="translate(-262,-142) scale(1,1)"><rect fill="#C0C0C0" stroke="none" x="863" y="532" width="152.71728515625" height="80" opacity="0.2"/></g><g transform="translate(-262,-142) scale(1,1)"><rect fill="#ffffff" stroke="none" x="856" y="525" width="152.71728515625" height="80"/></g><g transform="translate(-262,-142) scale(1,1)"><path fill="none" stroke="#000000" d="M 856 525 L 1008.71728515625 525 L 1008.71728515625 605 L 856 605 L 856 525 Z Z" stroke-miterlimit="10"/></g><g transform="translate(-262,-142) scale(1,1)"><path fill="none" stroke="#000000" d="M 856 550 L 1008.71728515625 550" stroke-miterlimit="10"/></g><g transform="translate(-262,-142) scale(1,1)"><g><path fill="none" stroke="none"/><text fill="#000000" stroke="none" font-family="Arial" font-size="13px" font-style="normal" font-weight="bold" text-decoration="none" x="870.3642578125" y="542.7099609375">WorkLineAlgorythm</text></g></g><g transform="translate(-262,-142) scale(1,1)"><g><path fill="none" stroke="none"/><text fill="#000000" stroke="none" font-family="Arial" font-size="13px" font-style="normal" font-weight="normal" text-decoration="none" x="861" y="565.7099609375">+execute()</text></g></g><g transform="translate(-262,-142) scale(1,1)"><path fill="none" stroke="#000000" d="M 712 525 L 712 456 L 808 456 L 808 419" stroke-miterlimit="10" stroke-dasharray="3"/></g><g transform="translate(-262,-142) scale(1,1)"><path fill="#FFFFFF" stroke="none" d="M 816.419035512032 439.3253497152483 L 808 419 L 799.580964487968 439.3253497152483"/></g><g transform="translate(-262,-142) scale(1,1)"><path fill="none" stroke="#000000" d="M 816.419035512032 439.3253497152483 L 808 419 L 799.580964487968 439.3253497152483 L 816.419035512032 439.3253497152483" stroke-miterlimit="10"/></g><g transform="translate(-262,-142) scale(1,1)"><path fill="none" stroke="#000000" d="M 912 525 L 912 456 L 808 456 L 808 419" stroke-miterlimit="10" stroke-dasharray="3"/></g><g transform="translate(-262,-142) scale(1,1)"><path fill="#FFFFFF" stroke="none" d="M 816.419035512032 439.3253497152483 L 808 419 L 799.580964487968 439.3253497152483"/></g><g transform="translate(-262,-142) scale(1,1)"><path fill="none" stroke="#000000" d="M 816.419035512032 439.3253497152483 L 808 419 L 799.580964487968 439.3253497152483 L 816.419035512032 439.3253497152483" stroke-miterlimit="10"/></g><g transform="translate(-262,-142) scale(1,1)"><path fill="none" stroke="#000000" d="M 743 367 L 534 367" stroke-miterlimit="10"/></g><g transform="translate(-262,-142) scale(1,1)"><path fill="#FFFFFF" stroke="none" d="M 544.1626748576241 362.790482243984 L 534 367 L 544.1626748576241 371.209517756016 L 556 367"/></g><g transform="translate(-262,-142) scale(1,1)"><path fill="none" stroke="#000000" d="M 544.1626748576241 362.790482243984 L 534 367 L 544.1626748576241 371.209517756016 L 556 367 L 544.1626748576241 362.790482243984" stroke-miterlimit="10"/></g><g transform="translate(-262,-142) scale(1,1)"><path fill="none" stroke="#000000" d="M 732.8373251423759 371.209517756016 L 743 367 L 732.8373251423758 362.790482243984" stroke-miterlimit="10"/></g><g transform="translate(-262,-142) scale(1,1)"><path fill="none" stroke="#000000" d="M 454 537 L 454 440" stroke-miterlimit="10"/></g><g transform="translate(-262,-142) scale(1,1)"><path fill="none" stroke="#000000" d="M 458.209517756016 450.16267485762415 L 454 440 L 449.790482243984 450.16267485762415" stroke-miterlimit="10"/></g><g transform="translate(-262,-142) scale(1,1)"><path fill="none" stroke="#000000" d="M 516 565 L 631 565" stroke-miterlimit="10" stroke-dasharray="3"/></g><g transform="translate(-262,-142) scale(1,1)"><path fill="none" stroke="#000000" d="M 620.8373251423759 569.209517756016 L 631 565 L 620.8373251423758 560.790482243984" stroke-miterlimit="10"/></g><g transform="translate(-262,-142) scale(1,1)"><path fill="none" stroke="#000000" d="M 457 593 L 457 680 L 920 680 L 920 605" stroke-miterlimit="10" stroke-dasharray="3"/></g><g transform="translate(-262,-142) scale(1,1)"><path fill="none" stroke="#000000" d="M 924.209517756016 615.1626748576241 L 920 605 L 915.790482243984 615.1626748576241" stroke-miterlimit="10"/></g><g transform="translate(-262,-142) scale(1,1)"><path fill="#ffffff" stroke="none" d="M 824 200 L 1100 200 L 1110 210 L 1110 278 L 824 278 L 824 200"/></g><g transform="translate(-262,-142) scale(1,1)"><path fill="none" stroke="#000000" d="M 824 200 L 1100 200 L 1110 210 L 1110 278 L 824 278 L 824 200 L 824 200" stroke-miterlimit="10"/></g><g transform="translate(-262,-142) scale(1,1)"><path fill="none" stroke="#000000" d="M 1100 200 L 1100 210 L 1110 210 L 1100 200" stroke-miterlimit="10"/></g><g transform="translate(-262,-142) scale(1,1)"><g><path fill="none" stroke="none"/><text fill="#000000" stroke="none" font-family="Arial" font-size="13px" font-style="normal" font-weight="normal" text-decoration="none" x="829" y="214.419921875">We assume that all attributes have get and set</text><text fill="#000000" stroke="none" font-family="Arial" font-size="13px" font-style="normal" font-weight="normal" text-decoration="none" x="829" y="227.419921875">methods and all clases have constructor/</text><text fill="#000000" stroke="none" font-family="Arial" font-size="13px" font-style="normal" font-weight="normal" text-decoration="none" x="829" y="240.419921875">destructor methods. </text></g></g></g></svg>