<svg version="1.1" xmlns="http://www.w3.org/2000/svg" xmlns:xlink="http://www.w3.org/1999/xlink" width="764" height="484"><defs/><g><g transform="translate(-286,-198) scale(1,1)"><rect fill="#C0C0C0" stroke="none" x="303" y="215" width="297.6" height="15" opacity="0.2"/></g><g transform="translate(-286,-198) scale(1,1)"><rect fill="#C0C0C0" stroke="none" x="303" y="229" width="744" height="450" opacity="0.2"/></g><g transform="translate(-286,-198) scale(1,1)"><rect fill="#ffffff" stroke="none" x="296" y="223" width="744" height="449"/></g><g transform="translate(-286,-198) scale(1,1)"><path fill="none" stroke="#000000" d="M 296 223 L 1040 223 L 1040 672 L 296 672 L 296 223 Z Z" stroke-miterlimit="10"/></g><g transform="translate(-286,-198) scale(1,1)"><rect fill="#ffffff" stroke="none" x="296" y="208" width="297.6" height="15"/></g><g transform="translate(-286,-198) scale(1,1)"><path fill="none" stroke="#000000" d="M 296 208 L 593.6 208 L 593.6 223 L 296 223 L 296 208 Z Z" stroke-miterlimit="10"/></g><g transform="translate(-286,-198) scale(1,1)"><rect fill="#ffffff" stroke="none" x="296" y="222" width="744" height="450"/></g><g transform="translate(-286,-198) scale(1,1)"><path fill="none" stroke="#000000" d="M 296 222 L 1040 222 L 1040 672 L 296 672 L 296 222 Z Z" stroke-miterlimit="10"/></g><g transform="translate(-286,-198) scale(1,1)"><g><path fill="none" stroke="none"/><text fill="#000000" stroke="none" font-family="Arial" font-size="13px" font-style="normal" font-weight="bold" text-decoration="none" x="615.2509765625" y="242.5">Messaging Centre</text></g></g><g transform="translate(-286,-198) scale(1,1)"><path fill="none" stroke="#000000" d="M 936 528 L 936 425" stroke-miterlimit="10" stroke-dasharray="3"/></g><g transform="translate(-286,-198) scale(1,1)"><path fill="#FFFFFF" stroke="none" d="M 944.419035512032 445.3253497152483 L 936 425 L 927.580964487968 445.3253497152483"/></g><g transform="translate(-286,-198) scale(1,1)"><path fill="none" stroke="#000000" d="M 944.419035512032 445.3253497152483 L 936 425 L 927.580964487968 445.3253497152483 L 944.419035512032 445.3253497152483" stroke-miterlimit="10"/></g><g transform="translate(-286,-198) scale(1,1)"><rect fill="#C0C0C0" stroke="none" x="895" y="372" width="89.57080078125" height="60" opacity="0.2"/></g><g transform="translate(-286,-198) scale(1,1)"><rect fill="#ffffff" stroke="none" x="888" y="365" width="89.57080078125" height="60"/></g><g transform="translate(-286,-198) scale(1,1)"><path fill="none" stroke="#000000" d="M 888 365 L 977.57080078125 365 L 977.57080078125 425 L 888 425 L 888 365 Z Z" stroke-miterlimit="10"/></g><g transform="translate(-286,-198) scale(1,1)"><path fill="none" stroke="#000000" d="M 888 403 L 977.57080078125 403" stroke-miterlimit="10"/></g><g transform="translate(-286,-198) scale(1,1)"><g><path fill="none" stroke="none"/><text fill="#000000" stroke="none" font-family="Arial" font-size="13px" font-style="normal" font-weight="normal" text-decoration="none" x="900.625" y="382.5">«interface»</text></g></g><g transform="translate(-286,-198) scale(1,1)"><g><path fill="none" stroke="none"/><text fill="#000000" stroke="none" font-family="Arial" font-size="13px" font-style="normal" font-weight="bold" text-decoration="none" x="901.716796875" y="397.5">Subscriber</text></g></g><g transform="translate(-286,-198) scale(1,1)"><g><path fill="none" stroke="none"/><text fill="#000000" stroke="none" font-family="Arial" font-size="13px" font-style="normal" font-weight="normal" text-decoration="none" x="893" y="420.5">+update()</text></g></g><g transform="translate(-286,-198) scale(1,1)"><path fill="none" stroke="#000000" d="M 888 392 L 707 392" stroke-miterlimit="10"/></g><g transform="translate(-286,-198) scale(1,1)"><path fill="#FFFFFF" stroke="none" d="M 717.1626748576241 387.790482243984 L 707 392 L 717.1626748576241 396.209517756016 L 729 392"/></g><g transform="translate(-286,-198) scale(1,1)"><path fill="none" stroke="#000000" d="M 717.1626748576241 387.790482243984 L 707 392 L 717.1626748576241 396.209517756016 L 729 392 L 717.1626748576241 387.790482243984" stroke-miterlimit="10"/></g><g transform="translate(-286,-198) scale(1,1)"><rect fill="#C0C0C0" stroke="none" x="527" y="342" width="187.46435546875" height="120" opacity="0.2"/></g><g transform="translate(-286,-198) scale(1,1)"><rect fill="#ffffff" stroke="none" x="520" y="335" width="187.46435546875" height="120"/></g><g transform="translate(-286,-198) scale(1,1)"><path fill="none" stroke="#000000" d="M 520 335 L 707.46435546875 335 L 707.46435546875 455 L 520 455 L 520 335 Z Z" stroke-miterlimit="10"/></g><g transform="translate(-286,-198) scale(1,1)"><path fill="none" stroke="#000000" d="M 520 360 L 707.46435546875 360" stroke-miterlimit="10"/></g><g transform="translate(-286,-198) scale(1,1)"><path fill="none" stroke="#000000" d="M 520 398 L 707.46435546875 398" stroke-miterlimit="10"/></g><g transform="translate(-286,-198) scale(1,1)"><g><path fill="none" stroke="none"/><text fill="#000000" stroke="none" font-family="Arial" font-size="13px" font-style="normal" font-weight="bold" text-decoration="none" x="586.634033203125" y="354.5">Publisher</text></g></g><g transform="translate(-286,-198) scale(1,1)"><g><path fill="none" stroke="none"/><text fill="#000000" stroke="none" font-family="Arial" font-size="13px" font-style="normal" font-weight="normal" text-decoration="none" x="525" y="377.5">-subscribedClients: Subscriber</text></g></g><g transform="translate(-286,-198) scale(1,1)"><g><path fill="none" stroke="none"/><text fill="#000000" stroke="none" font-family="Arial" font-size="13px" font-style="normal" font-weight="normal" text-decoration="none" x="525" y="392.5">-mainState</text></g></g><g transform="translate(-286,-198) scale(1,1)"><g><path fill="none" stroke="none"/><text fill="#000000" stroke="none" font-family="Arial" font-size="13px" font-style="normal" font-weight="normal" text-decoration="none" x="525" y="415.5">+subscribe(s: Subscriber)</text></g></g><g transform="translate(-286,-198) scale(1,1)"><g><path fill="none" stroke="none"/><text fill="#000000" stroke="none" font-family="Arial" font-size="13px" font-style="normal" font-weight="normal" text-decoration="none" x="525" y="430.5">+unsubscribe(s: Subscriber)</text></g></g><g transform="translate(-286,-198) scale(1,1)"><g><path fill="none" stroke="none"/><text fill="#000000" stroke="none" font-family="Arial" font-size="13px" font-style="normal" font-weight="normal" text-decoration="none" x="525" y="445.5">+notifySubscribers()</text></g></g><g transform="translate(-286,-198) scale(1,1)"><path fill="none" stroke="#000000" d="M 616 528 L 616 455" stroke-miterlimit="10"/></g><g transform="translate(-286,-198) scale(1,1)"><path fill="none" stroke="#000000" d="M 620.209517756016 465.16267485762415 L 616 455 L 611.790482243984 465.16267485762415" stroke-miterlimit="10"/></g><g transform="translate(-286,-198) scale(1,1)"><rect fill="#C0C0C0" stroke="none" x="554" y="535" width="132.9189453125" height="47" opacity="0.2"/></g><g transform="translate(-286,-198) scale(1,1)"><rect fill="#ffffff" stroke="none" x="547" y="528" width="132.9189453125" height="47"/></g><g transform="translate(-286,-198) scale(1,1)"><path fill="none" stroke="#000000" d="M 547 528 L 679.9189453125 528 L 679.9189453125 575 L 547 575 L 547 528 Z Z" stroke-miterlimit="10"/></g><g transform="translate(-286,-198) scale(1,1)"><path fill="none" stroke="#000000" d="M 547 553 L 679.9189453125 553" stroke-miterlimit="10"/></g><g transform="translate(-286,-198) scale(1,1)"><g><path fill="none" stroke="none"/><text fill="#000000" stroke="none" font-family="Arial" font-size="13px" font-style="normal" font-weight="bold" text-decoration="none" x="565.76953125" y="547.5">Message Center</text></g></g><g transform="translate(-286,-198) scale(1,1)"><g><path fill="none" stroke="none"/><text fill="#000000" stroke="none" font-family="Arial" font-size="13px" font-style="normal" font-weight="normal" text-decoration="none" x="552" y="570.5">+createSubscription()</text></g></g><g transform="translate(-286,-198) scale(1,1)"><rect fill="#C0C0C0" stroke="none" x="888" y="535" width="103.275390625" height="47" opacity="0.2"/></g><g transform="translate(-286,-198) scale(1,1)"><rect fill="#ffffff" stroke="none" x="881" y="528" width="103.275390625" height="47"/></g><g transform="translate(-286,-198) scale(1,1)"><path fill="none" stroke="#000000" d="M 881 528 L 984.275390625 528 L 984.275390625 575 L 881 575 L 881 528 Z Z" stroke-miterlimit="10"/></g><g transform="translate(-286,-198) scale(1,1)"><path fill="none" stroke="#000000" d="M 881 553 L 984.275390625 553" stroke-miterlimit="10"/></g><g transform="translate(-286,-198) scale(1,1)"><g><path fill="none" stroke="none"/><text fill="#000000" stroke="none" font-family="Arial" font-size="13px" font-style="normal" font-weight="bold" text-decoration="none" x="916.01953125" y="547.5">Client</text></g></g><g transform="translate(-286,-198) scale(1,1)"><g><path fill="none" stroke="none"/><text fill="#000000" stroke="none" font-family="Arial" font-size="13px" font-style="normal" font-weight="normal" text-decoration="none" x="886" y="570.5">+update()</text></g></g><g transform="translate(-286,-198) scale(1,1)"><path fill="none" stroke="#000000" d="M 680 548 L 881 548" stroke-miterlimit="10" stroke-dasharray="3"/></g><g transform="translate(-286,-198) scale(1,1)"><path fill="none" stroke="#000000" d="M 870.8373251423759 552.209517756016 L 881 548 L 870.8373251423758 543.790482243984" stroke-miterlimit="10"/></g><g transform="translate(-286,-198) scale(1,1)"><path fill="#ffffff" stroke="none" d="M 312 240 L 382.8671875 240 L 392.8671875 250 L 392.8671875 328 L 312 328 L 312 240"/></g><g transform="translate(-286,-198) scale(1,1)"><path fill="none" stroke="#000000" d="M 312 240 L 382.8671875 240 L 392.8671875 250 L 392.8671875 328 L 312 328 L 312 240 L 312 240" stroke-miterlimit="10"/></g><g transform="translate(-286,-198) scale(1,1)"><path fill="none" stroke="#000000" d="M 382.8671875 240 L 382.8671875 250 L 392.8671875 250 L 382.8671875 240" stroke-miterlimit="10"/></g><g transform="translate(-286,-198) scale(1,1)"><g><path fill="none" stroke="none"/><text fill="#000000" stroke="none" font-family="Arial" font-size="13px" font-style="normal" font-weight="normal" text-decoration="none" x="317" y="258">The</text><text fill="#000000" stroke="none" font-family="Arial" font-size="13px" font-style="normal" font-weight="normal" text-decoration="none" x="317" y="271">messaging</text><text fill="#000000" stroke="none" font-family="Arial" font-size="13px" font-style="normal" font-weight="normal" text-decoration="none" x="317" y="284">system is</text><text fill="#000000" stroke="none" font-family="Arial" font-size="13px" font-style="normal" font-weight="normal" text-decoration="none" x="317" y="297">based on</text><text fill="#000000" stroke="none" font-family="Arial" font-size="13px" font-style="normal" font-weight="normal" text-decoration="none" x="317" y="310">MQTT</text></g></g><g transform="translate(-286,-198) scale(1,1)"><path fill="#ffffff" stroke="none" d="M 312 568 L 456.3017578125 568 L 466.3017578125 578 L 466.3017578125 656 L 312 656 L 312 568"/></g><g transform="translate(-286,-198) scale(1,1)"><path fill="none" stroke="#000000" d="M 312 568 L 456.3017578125 568 L 466.3017578125 578 L 466.3017578125 656 L 312 656 L 312 568 L 312 568" stroke-miterlimit="10"/></g><g transform="translate(-286,-198) scale(1,1)"><path fill="none" stroke="#000000" d="M 456.3017578125 568 L 456.3017578125 578 L 466.3017578125 578 L 456.3017578125 568" stroke-miterlimit="10"/></g><g transform="translate(-286,-198) scale(1,1)"><g><path fill="none" stroke="none"/><text fill="#000000" stroke="none" font-family="Arial" font-size="13px" font-style="normal" font-weight="normal" text-decoration="none" x="317" y="586">We assume that all</text><text fill="#000000" stroke="none" font-family="Arial" font-size="13px" font-style="normal" font-weight="normal" text-decoration="none" x="317" y="599">attributes have get and</text><text fill="#000000" stroke="none" font-family="Arial" font-size="13px" font-style="normal" font-weight="normal" text-decoration="none" x="317" y="612">set methods and all</text><text fill="#000000" stroke="none" font-family="Arial" font-size="13px" font-style="normal" font-weight="normal" text-decoration="none" x="317" y="625">classes have constructor</text><text fill="#000000" stroke="none" font-family="Arial" font-size="13px" font-style="normal" font-weight="normal" text-decoration="none" x="317" y="638">and destructor methods</text></g></g></g></svg>